<?xml version="1.0" encoding="UTF-8"?>
<svg xmlns="http://www.w3.org/2000/svg" xmlns:xlink="http://www.w3.org/1999/xlink" width="314pt" height="36pt" viewBox="0 0 314 36" version="1.1">
<g id="surface1">
<path style=" stroke:none;fill-rule:nonzero;fill:rgb(49.019608%,71.372549%,61.176471%);fill-opacity:1;" d="M 5.414062 9.535156 C 5.414062 8.855469 5.484375 8.234375 5.621094 7.675781 C 5.960938 6.28125 6.640625 5.386719 7.664062 4.984375 C 8.511719 4.640625 9.503906 4.703125 10.632812 5.167969 C 11.542969 5.539062 12.417969 6.113281 13.25 6.886719 C 14.085938 7.675781 14.679688 8.476562 15.035156 9.28125 C 15.082031 9.390625 15.128906 9.574219 15.175781 9.839844 C 15.207031 9.945312 15.238281 10.085938 15.269531 10.257812 L 15.453125 10.765625 C 15.53125 10.984375 15.515625 11.191406 15.410156 11.394531 L 15.429688 11.441406 C 15.460938 11.671875 15.410156 11.878906 15.269531 12.054688 C 15.128906 12.234375 14.949219 12.339844 14.722656 12.371094 C 14.5 12.402344 14.296875 12.347656 14.121094 12.207031 C 13.945312 12.070312 13.839844 11.890625 13.808594 11.671875 L 13.785156 11.347656 C 13.660156 11.222656 13.585938 11.078125 13.554688 10.90625 C 13.476562 10.335938 13.320312 9.824219 13.089844 9.375 C 12.6875 8.847656 12.121094 8.320312 11.394531 7.792969 C 10.980469 7.605469 10.539062 7.515625 10.074219 7.515625 C 9.179688 7.515625 8.429688 7.839844 7.824219 8.492188 C 7.824219 8.847656 7.847656 9.199219 7.894531 9.546875 C 7.941406 9.894531 8.035156 10.296875 8.171875 10.746094 L 8.472656 11.765625 C 8.535156 11.96875 8.683594 12.382812 8.914062 13.007812 C 9.148438 13.636719 9.285156 14.003906 9.332031 14.113281 C 9.53125 14.65625 10.054688 15.988281 10.898438 18.109375 C 11.742188 20.230469 12.417969 22.066406 12.925781 23.613281 C 13.4375 25.164062 13.777344 26.574219 13.945312 27.84375 C 14.085938 28.957031 13.992188 29.777344 13.667969 30.304688 C 13.328125 30.847656 12.824219 31.085938 12.160156 31.023438 C 11.945312 31.101562 11.707031 31.125 11.441406 31.09375 C 11.132812 31.0625 11.007812 31.269531 10.574219 31.191406 C 9.984375 31.101562 9.449219 30.945312 8.960938 30.722656 C 8.257812 30.394531 7.617188 29.996094 7.042969 29.523438 C 6.484375 29.046875 5.976562 28.488281 5.519531 27.84375 C 5.066406 27.199219 4.699219 26.621094 4.414062 26.113281 C 4.128906 25.609375 3.804688 24.972656 3.441406 24.214844 C 3.351562 24 3.34375 23.792969 3.417969 23.585938 C 3.492188 23.378906 3.632812 23.226562 3.835938 23.128906 C 4.039062 23.035156 4.246094 23.023438 4.453125 23.097656 C 4.65625 23.175781 4.8125 23.308594 4.914062 23.503906 C 5.179688 24.082031 5.421875 24.5625 5.640625 24.945312 C 5.980469 24.890625 6.253906 25.019531 6.457031 25.324219 C 7.414062 26.746094 8.378906 27.769531 9.351562 28.394531 L 9.996094 28.761719 C 10.019531 28.6875 10.761719 28.121094 10.839844 28.074219 L 10.769531 27.914062 C 10.460938 27.089844 10.121094 26.292969 9.75 25.519531 C 8.464844 22.824219 7.460938 20.492188 6.734375 18.527344 C 5.527344 15.242188 4.996094 12.75 5.136719 11.046875 C 5.179688 10.519531 5.273438 10.015625 5.414062 9.535156 Z M 5.414062 9.535156 "/>
<path style=" stroke:none;fill-rule:nonzero;fill:rgb(49.019608%,71.372549%,61.176471%);fill-opacity:1;" d="M 19.195312 9.441406 C 19.828125 8.484375 20.800781 7.675781 22.117188 7.027344 C 23.570312 6.300781 24.859375 6.089844 25.988281 6.398438 C 26.683594 6.585938 27.3125 6.988281 27.867188 7.605469 C 28.71875 8.210938 29.453125 9.25 30.070312 10.71875 C 30.488281 11.710938 30.820312 12.835938 31.066406 14.089844 C 31.316406 15.34375 31.476562 16.71875 31.554688 18.210938 C 31.632812 19.707031 31.679688 21 31.695312 22.09375 C 31.710938 23.183594 31.699219 24.570312 31.660156 26.25 C 31.621094 27.933594 31.601562 29.082031 31.601562 29.699219 C 31.601562 29.839844 31.570312 29.964844 31.507812 30.074219 C 31.554688 30.257812 31.539062 30.4375 31.460938 30.609375 C 31.382812 30.792969 31.25 30.933594 31.054688 31.023438 C 30.863281 31.117188 30.664062 31.125 30.464844 31.046875 L 30.417969 31.046875 C 30.21875 31.09375 30.023438 31.058594 29.839844 30.945312 C 29.652344 30.828125 29.535156 30.660156 29.492188 30.445312 C 28.980469 29.980469 28.648438 29.335938 28.492188 28.515625 C 27.9375 29.335938 27.347656 29.933594 26.730469 30.304688 C 26.097656 30.691406 25.402344 30.925781 24.644531 31.003906 C 23.886719 31.078125 23.167969 31.015625 22.488281 30.816406 C 21.808594 30.613281 21.203125 30.226562 20.679688 29.652344 C 20.152344 29.082031 19.8125 28.375 19.65625 27.539062 C 19.332031 25.851562 19.394531 24.078125 19.84375 22.21875 C 20.292969 20.332031 21.011719 18.6875 22 17.296875 C 23.097656 15.761719 24.179688 14.777344 25.246094 14.34375 C 26.003906 14.035156 26.730469 14.011719 27.425781 14.273438 C 27.828125 14.414062 28.214844 14.640625 28.585938 14.949219 C 28.414062 13.277344 28.128906 11.960938 27.726562 11 C 27 9.296875 25.933594 8.523438 24.527344 8.675781 C 23.863281 8.832031 23.222656 9.125 22.601562 9.558594 C 21.984375 9.992188 21.480469 10.488281 21.097656 11.046875 C 20.925781 11.308594 20.6875 11.433594 20.375 11.417969 L 20.261719 11.558594 C 20.136719 11.742188 19.964844 11.855469 19.738281 11.894531 C 19.515625 11.933594 19.3125 11.886719 19.136719 11.753906 C 18.957031 11.625 18.851562 11.445312 18.8125 11.21875 C 18.773438 10.996094 18.824219 10.796875 18.960938 10.628906 L 19.171875 10.324219 C 18.984375 10.015625 18.992188 9.722656 19.195312 9.441406 Z M 23.554688 29.214844 C 23.320312 29.246094 23.089844 29.246094 22.859375 29.214844 C 23.199219 29.351562 23.5625 29.429688 23.949219 29.445312 C 23.792969 29.398438 23.660156 29.320312 23.554688 29.214844 Z M 27.195312 18.710938 C 27.117188 18.726562 27.015625 18.773438 26.894531 18.851562 C 26.675781 18.992188 26.457031 19.199219 26.234375 19.480469 C 26.007812 19.757812 25.84375 20.03125 25.734375 20.292969 C 25.316406 21.269531 24.996094 22.328125 24.769531 23.476562 C 24.546875 24.621094 24.472656 25.683594 24.550781 26.65625 C 25.183594 25.898438 25.765625 24.839844 26.289062 23.476562 C 26.863281 21.988281 27.171875 20.65625 27.21875 19.480469 C 27.21875 19.199219 27.210938 18.945312 27.195312 18.710938 Z M 26.335938 26.984375 C 26.242188 27.121094 26.152344 27.253906 26.058594 27.378906 C 26.152344 27.269531 26.242188 27.136719 26.335938 26.984375 Z M 27.378906 16.273438 L 27.402344 16.273438 C 27.558594 16.335938 27.707031 16.414062 27.84375 16.503906 C 27.707031 16.351562 27.574219 16.21875 27.449219 16.109375 C 27.417969 16.171875 27.394531 16.226562 27.378906 16.273438 Z M 28.261719 26.75 C 28.324219 26.765625 28.378906 26.78125 28.425781 26.796875 C 28.425781 26.65625 28.433594 26.496094 28.445312 26.308594 C 28.386719 26.464844 28.324219 26.613281 28.261719 26.75 Z M 28.679688 17.804688 L 28.75 17.898438 C 28.75 17.667969 28.742188 17.441406 28.726562 17.226562 C 28.601562 17.210938 28.484375 17.171875 28.378906 17.109375 C 28.46875 17.265625 28.554688 17.441406 28.632812 17.644531 C 28.648438 17.691406 28.664062 17.746094 28.679688 17.804688 Z M 28.679688 17.804688 "/>
<path style=" stroke:none;fill-rule:nonzero;fill:rgb(49.019608%,71.372549%,61.176471%);fill-opacity:1;" d="M 37.433594 27.472656 C 37.261719 26.109375 37.230469 24.738281 37.339844 23.359375 C 37.171875 22.167969 36.984375 21.035156 36.785156 19.964844 C 35.980469 15.800781 35.011719 12.917969 33.882812 11.324219 C 33.746094 11.15625 33.695312 10.957031 33.734375 10.734375 C 33.773438 10.507812 33.882812 10.335938 34.070312 10.210938 C 34.148438 10.148438 34.234375 10.101562 34.324219 10.070312 C 34.371094 9.808594 34.511719 9.613281 34.742188 9.488281 C 34.914062 9.398438 35.085938 9.363281 35.265625 9.386719 C 35.441406 9.40625 35.601562 9.488281 35.738281 9.628906 C 35.753906 9.597656 35.785156 9.566406 35.832031 9.535156 C 36.003906 9.398438 36.199219 9.34375 36.425781 9.375 C 36.648438 9.40625 36.828125 9.511719 36.96875 9.699219 C 37.820312 10.785156 38.476562 12.503906 38.941406 14.855469 C 39.171875 14.191406 39.425781 13.59375 39.707031 13.066406 C 40.015625 12.464844 40.347656 12 40.703125 11.671875 C 41.226562 11.164062 41.792969 10.9375 42.394531 11 C 43.429688 11.109375 44.21875 11.820312 44.761719 13.136719 C 44.960938 13.632812 45.179688 14.492188 45.410156 15.714844 L 45.734375 17.410156 C 46.011719 16.109375 46.40625 15.074219 46.917969 14.296875 C 47.660156 13.136719 48.632812 12.546875 49.839844 12.53125 C 50.921875 12.519531 51.757812 13.152344 52.34375 14.4375 C 52.652344 15.089844 52.902344 15.96875 53.085938 17.085938 C 53.347656 18.746094 53.558594 20.8125 53.710938 23.289062 C 53.726562 23.492188 53.777344 24.363281 53.863281 25.902344 C 53.949219 27.445312 54.023438 28.617188 54.082031 29.421875 C 54.097656 29.65625 54.03125 29.855469 53.886719 30.027344 C 53.738281 30.195312 53.558594 30.289062 53.339844 30.304688 C 53.125 30.320312 52.929688 30.257812 52.761719 30.117188 C 52.621094 30.242188 52.46875 30.3125 52.296875 30.328125 C 52.066406 30.34375 51.863281 30.277344 51.695312 30.132812 C 51.523438 29.984375 51.433594 29.800781 51.417969 29.585938 C 51.402344 29.277344 51.347656 28.410156 51.253906 26.996094 C 51.160156 25.578125 51.089844 24.59375 51.035156 24.042969 C 50.980469 23.496094 50.859375 22.71875 50.675781 21.722656 C 50.488281 20.722656 50.257812 19.84375 49.980469 19.085938 C 49.699219 18.292969 49.492188 17.777344 49.351562 17.527344 C 49.199219 17.21875 49.050781 17 48.914062 16.878906 C 48.851562 16.96875 48.789062 17.070312 48.726562 17.179688 C 48.527344 17.734375 48.339844 18.410156 48.171875 19.199219 C 47.875 20.65625 47.636719 22.605469 47.449219 25.054688 C 47.449219 25.085938 47.441406 25.226562 47.429688 25.472656 L 47.382812 26.402344 C 47.351562 26.789062 47.328125 27.144531 47.3125 27.46875 C 47.265625 28.121094 47.226562 28.632812 47.195312 29.003906 C 47.179688 29.234375 47.164062 29.421875 47.148438 29.5625 C 47.132812 29.640625 47.117188 29.707031 47.101562 29.769531 C 47.101562 29.816406 47.09375 29.855469 47.078125 29.886719 C 47.035156 30.011719 46.972656 30.117188 46.894531 30.210938 C 46.617188 30.539062 46.292969 30.597656 45.921875 30.398438 C 45.828125 30.351562 45.75 30.289062 45.6875 30.210938 C 45.640625 30.179688 45.601562 30.132812 45.574219 30.074219 C 45.558594 30.027344 45.535156 29.972656 45.503906 29.910156 C 45.363281 29.800781 45.292969 29.71875 45.292969 29.652344 L 45.246094 29.515625 C 45.246094 29.484375 45.238281 29.453125 45.226562 29.421875 L 45.226562 29.191406 C 44.898438 29.144531 44.667969 28.957031 44.527344 28.632812 C 44.484375 28.492188 44.453125 28.300781 44.4375 28.050781 L 44.4375 27.519531 C 44.4375 27.457031 44.429688 27.402344 44.414062 27.355469 C 44.273438 26.394531 44.179688 25.558594 44.132812 24.847656 C 44.042969 23.4375 43.902344 22.066406 43.71875 20.734375 C 43.59375 19.851562 43.460938 19.117188 43.324219 18.527344 C 43.167969 17.90625 43.027344 17.503906 42.90625 17.320312 C 42.6875 16.992188 42.425781 16.863281 42.117188 16.925781 C 41.714844 17.015625 41.25 17.34375 40.726562 17.898438 C 40.449219 18.175781 40.183594 18.503906 39.9375 18.875 L 39.660156 19.734375 C 39.644531 20.011719 39.636719 20.308594 39.636719 20.617188 L 39.753906 22.617188 C 39.796875 23.421875 39.835938 24.707031 39.867188 26.472656 L 40.007812 27.050781 C 40.070312 27.269531 40.03125 27.480469 39.890625 27.679688 L 39.890625 29.351562 C 39.875 29.382812 39.867188 29.414062 39.867188 29.445312 C 39.867188 29.507812 39.820312 29.59375 39.730469 29.699219 C 39.605469 30.011719 39.390625 30.1875 39.078125 30.234375 C 38.847656 30.265625 38.640625 30.210938 38.464844 30.074219 C 38.285156 29.933594 38.183594 29.753906 38.152344 29.539062 L 37.988281 28.144531 C 37.664062 28.035156 37.480469 27.8125 37.433594 27.472656 Z M 41.445312 13.300781 C 42.03125 13.050781 42.597656 13.144531 43.136719 13.578125 L 43.183594 13.625 C 42.921875 12.988281 42.597656 12.65625 42.210938 12.625 C 42.117188 12.609375 41.984375 12.679688 41.816406 12.835938 C 41.691406 12.957031 41.566406 13.113281 41.445312 13.300781 Z M 41.539062 15.414062 C 41.613281 15.382812 41.691406 15.359375 41.769531 15.34375 C 41.984375 15.296875 42.203125 15.273438 42.417969 15.273438 C 42.308594 15.058594 42.210938 14.910156 42.117188 14.832031 L 42.070312 14.808594 C 41.960938 14.855469 41.816406 15.003906 41.628906 15.25 Z M 49.445312 14.207031 C 49.707031 14.207031 49.96875 14.261719 50.234375 14.367188 L 50.511719 14.507812 C 50.3125 14.273438 50.085938 14.160156 49.839844 14.160156 C 49.699219 14.160156 49.570312 14.175781 49.445312 14.207031 Z M 49.445312 14.207031 "/>
<path style=" stroke:none;fill-rule:nonzero;fill:rgb(49.019608%,71.372549%,61.176471%);fill-opacity:1;" d="M 68.675781 14.601562 C 68.628906 14.507812 68.597656 14.40625 68.582031 14.296875 L 68.398438 13.300781 L 68.210938 12.71875 C 67.839844 11.589844 67.484375 10.652344 67.144531 9.90625 L 66.890625 9.351562 C 66.039062 8.265625 65.082031 7.785156 64.015625 7.910156 C 63.425781 7.972656 62.871094 8.226562 62.34375 8.675781 L 62.253906 8.816406 C 61.929688 9.542969 61.640625 10.582031 61.394531 11.929688 C 61.101562 13.726562 60.898438 15.894531 60.792969 18.433594 C 60.699219 20.867188 60.707031 23.210938 60.816406 25.472656 C 61.726562 25.242188 62.453125 25.015625 62.996094 24.800781 C 63.304688 24.675781 63.582031 24.714844 63.828125 24.917969 L 63.921875 24.867188 C 64.136719 24.777344 64.351562 24.769531 64.558594 24.847656 C 64.769531 24.921875 64.917969 25.0625 65.011719 25.261719 C 65.121094 25.511719 65.113281 25.75 64.988281 25.984375 C 65.035156 26.183594 65.007812 26.375 64.90625 26.554688 C 64.808594 26.730469 64.65625 26.851562 64.457031 26.914062 C 63.652344 27.175781 62.878906 27.417969 62.136719 27.632812 C 62.121094 27.648438 62.097656 27.65625 62.066406 27.65625 C 61.695312 27.8125 61.339844 27.949219 61 28.074219 C 61.078125 28.757812 61.164062 32.75 61.253906 33.148438 C 61.347656 33.523438 61.230469 33.808594 60.90625 34.011719 C 60.875 34.367188 60.699219 34.605469 60.375 34.730469 C 60.15625 34.808594 59.949219 34.796875 59.75 34.695312 C 59.546875 34.59375 59.40625 34.445312 59.332031 34.242188 C 59.238281 33.964844 59.144531 33.652344 59.050781 33.3125 C 58.945312 33.175781 58.890625 29.5625 58.890625 29.375 L 58.890625 29.167969 L 58.796875 28.703125 C 58.566406 28.75 58.339844 28.789062 58.125 28.816406 C 57.890625 28.847656 57.683594 28.789062 57.496094 28.632812 L 57.453125 28.65625 C 57.25 28.703125 57.058594 28.679688 56.871094 28.585938 C 56.6875 28.648438 56.503906 28.644531 56.328125 28.574219 C 56.148438 28.503906 56.015625 28.386719 55.921875 28.214844 C 55.796875 28.027344 55.765625 27.828125 55.828125 27.609375 C 55.890625 27.394531 56.023438 27.230469 56.222656 27.121094 C 56.839844 26.765625 57.550781 26.449219 58.355469 26.167969 C 58.140625 24.574219 57.96875 22.894531 57.847656 21.128906 C 57.550781 16.515625 57.699219 13.300781 58.285156 11.488281 C 58.535156 10.699219 58.921875 9.9375 59.445312 9.210938 C 59.972656 8.46875 60.566406 7.824219 61.230469 7.28125 C 61.292969 7.222656 61.347656 7.160156 61.394531 7.097656 C 61.71875 6.695312 62.144531 6.40625 62.667969 6.238281 C 63.289062 5.898438 63.960938 5.710938 64.6875 5.679688 C 65.152344 5.664062 65.507812 5.6875 65.753906 5.75 C 66.109375 5.84375 66.464844 6.058594 66.820312 6.398438 C 66.976562 6.539062 67.121094 6.695312 67.261719 6.863281 C 67.324219 6.910156 67.386719 6.949219 67.445312 6.980469 C 68.28125 7.507812 69.007812 8.214844 69.625 9.105469 C 70.246094 9.996094 70.71875 10.96875 71.054688 12.023438 C 71.386719 13.074219 71.632812 14.074219 71.796875 15.019531 C 71.957031 15.964844 72.0625 16.910156 72.109375 17.851562 C 72.125 18.085938 72.054688 18.28125 71.898438 18.445312 C 71.746094 18.609375 71.554688 18.699219 71.332031 18.710938 C 71.105469 18.726562 70.914062 18.660156 70.75 18.503906 C 70.589844 18.347656 70.5 18.164062 70.484375 17.945312 L 70.484375 17.832031 C 70.4375 17.84375 70.390625 17.851562 70.34375 17.851562 C 70.113281 17.898438 69.90625 17.859375 69.71875 17.734375 C 69.535156 17.613281 69.425781 17.441406 69.394531 17.226562 L 69.300781 16.808594 C 69.085938 16.21875 68.875 15.484375 68.675781 14.601562 Z M 68.675781 14.601562 "/>
<path style=" stroke:none;fill-rule:nonzero;fill:rgb(49.019608%,71.372549%,61.176471%);fill-opacity:1;" d="M 78.214844 10.199219 C 78.570312 10.042969 78.957031 10.003906 79.371094 10.082031 C 80.316406 10.238281 81.210938 10.925781 82.0625 12.148438 C 82.464844 12.738281 82.953125 13.613281 83.523438 14.773438 C 84.21875 16.230469 84.667969 17.792969 84.871094 19.464844 C 85.007812 20.367188 85.019531 21.625 84.902344 23.242188 C 84.789062 24.859375 84.519531 26.34375 84.105469 27.691406 C 83.886719 28.433594 83.617188 29.125 83.292969 29.757812 C 82.96875 30.394531 82.578125 30.984375 82.121094 31.535156 C 81.664062 32.085938 81.109375 32.515625 80.453125 32.824219 C 79.792969 33.136719 79.078125 33.289062 78.304688 33.289062 C 76.621094 33.289062 75.351562 32.34375 74.503906 30.457031 C 73.882812 29.046875 73.511719 27.125 73.390625 24.695312 C 73.296875 22.804688 73.351562 20.847656 73.550781 18.816406 C 73.753906 16.789062 73.984375 15.230469 74.246094 14.148438 C 74.386719 13.574219 74.621094 12.96875 74.945312 12.335938 C 75.269531 11.699219 75.640625 11.179688 76.058594 10.777344 C 76.675781 10.207031 77.316406 9.988281 77.980469 10.128906 C 78.058594 10.160156 78.136719 10.183594 78.214844 10.199219 Z M 75.175781 26.550781 L 75.175781 26.34375 C 75.175781 24.421875 75.183594 23.023438 75.199219 22.140625 C 75.214844 21.257812 75.296875 20.023438 75.441406 18.445312 C 75.589844 16.863281 75.808594 15.457031 76.101562 14.214844 C 76.117188 14.171875 76.136719 14.082031 76.160156 13.949219 C 76.183594 13.820312 76.214844 13.683594 76.253906 13.542969 C 76.292969 13.402344 76.328125 13.265625 76.359375 13.125 C 76.109375 13.605469 75.933594 14.070312 75.824219 14.519531 C 75.578125 15.539062 75.351562 17.019531 75.152344 18.957031 C 74.964844 20.878906 74.921875 22.765625 75.011719 24.625 C 75.042969 25.351562 75.097656 25.996094 75.175781 26.550781 Z M 79.535156 27.761719 C 79.210938 28.007812 78.871094 28.039062 78.515625 27.855469 C 78.34375 27.761719 78.199219 27.628906 78.074219 27.457031 C 78.027344 27.398438 77.917969 27.21875 77.75 26.925781 C 77.671875 26.785156 77.601562 26.570312 77.539062 26.273438 C 77.480469 26.074219 77.425781 25.824219 77.378906 25.53125 C 77.269531 25.035156 77.199219 24.664062 77.167969 24.414062 C 76.96875 22.804688 76.898438 21.078125 76.960938 19.234375 C 76.851562 20.691406 76.800781 23.058594 76.800781 26.34375 C 76.800781 27.382812 76.882812 28.25 77.054688 28.945312 C 77.160156 29.410156 77.300781 29.75 77.472656 29.96875 C 77.5625 30.109375 77.679688 30.167969 77.820312 30.152344 C 78.296875 30.121094 78.753906 29.621094 79.1875 28.644531 C 79.3125 28.378906 79.425781 28.085938 79.535156 27.761719 Z M 80.832031 13.242188 C 80.972656 13.441406 81.113281 13.699219 81.25 14.007812 C 81.714844 14.984375 82.015625 15.867188 82.15625 16.65625 C 82.296875 17.230469 82.339844 18.347656 82.296875 20.011719 C 82.25 21.679688 82.109375 23.277344 81.878906 24.8125 C 81.582031 26.683594 81.183594 28.1875 80.671875 29.316406 C 80.097656 30.585938 79.378906 31.371094 78.515625 31.664062 C 80.355469 31.539062 81.699219 30.0625 82.550781 27.226562 C 82.921875 25.988281 83.160156 24.625 83.269531 23.136719 C 83.390625 21.636719 83.386719 20.476562 83.246094 19.652344 C 83.074219 18.179688 82.671875 16.789062 82.039062 15.472656 C 81.542969 14.433594 81.144531 13.691406 80.832031 13.242188 Z M 78.769531 24.019531 C 78.878906 23.152344 79 22.070312 79.140625 20.769531 C 79.25 19.992188 79.292969 19.230469 79.269531 18.480469 C 79.246094 17.730469 79.125 17.019531 78.910156 16.355469 C 78.878906 16.261719 78.863281 16.167969 78.863281 16.074219 L 78.816406 16.421875 C 78.507812 19.042969 78.492188 21.574219 78.769531 24.019531 Z M 78.886719 15.890625 C 78.902344 15.828125 78.925781 15.773438 78.957031 15.726562 C 79.046875 15.527344 79.203125 15.394531 79.417969 15.332031 C 79.652344 15.253906 79.875 15.277344 80.09375 15.402344 C 80 15.15625 79.898438 14.921875 79.789062 14.703125 C 79.621094 14.332031 79.449219 14.046875 79.28125 13.84375 C 79.21875 14.0625 79.148438 14.339844 79.070312 14.683594 C 79.007812 15.054688 78.949219 15.457031 78.886719 15.890625 Z M 79.835938 12.21875 C 80.023438 12.3125 80.191406 12.445312 80.347656 12.613281 C 80.4375 12.691406 80.523438 12.785156 80.601562 12.894531 C 80.339844 12.535156 80.074219 12.257812 79.8125 12.054688 C 79.828125 12.101562 79.835938 12.15625 79.835938 12.21875 Z M 79.835938 12.21875 "/>
<path style=" stroke:none;fill-rule:nonzero;fill:rgb(49.019608%,71.372549%,61.176471%);fill-opacity:1;" d="M 97.214844 29.976562 C 97.03125 30.066406 96.839844 30.082031 96.644531 30.03125 C 96.449219 29.976562 96.292969 29.867188 96.179688 29.703125 C 96.128906 29.625 95.9375 29.398438 95.605469 29.027344 C 95.128906 28.46875 94.8125 28.085938 94.648438 27.878906 C 94.242188 27.390625 93.929688 26.992188 93.722656 26.6875 C 93.574219 26.46875 93.46875 26.277344 93.410156 26.113281 C 93.363281 26.011719 92.40625 24.992188 92.328125 24.960938 L 91.796875 25.195312 C 91.78125 25.195312 91.75 25.21875 91.703125 25.261719 C 91.5625 25.355469 91.472656 25.410156 91.425781 25.425781 C 91.300781 25.503906 91.179688 25.558594 91.054688 25.589844 C 91.117188 26.65625 91.148438 27.664062 91.148438 28.609375 C 91.148438 28.855469 91.054688 29.058594 90.867188 29.214844 L 90.824219 29.839844 C 90.792969 30.058594 90.691406 30.234375 90.519531 30.375 C 90.351562 30.515625 90.148438 30.574219 89.917969 30.5625 C 89.734375 30.53125 89.574219 30.449219 89.441406 30.316406 C 89.3125 30.183594 89.230469 30.027344 89.199219 29.839844 C 89.105469 29.699219 89.058594 29.546875 89.058594 29.375 C 89.058594 27.890625 88.914062 25.394531 88.621094 21.894531 C 88.527344 20.78125 88.449219 19.285156 88.386719 17.410156 C 88.203125 13.925781 88.085938 11.953125 88.039062 11.488281 C 87.917969 10.25 87.738281 9.109375 87.507812 8.074219 C 87.460938 7.902344 87.476562 7.738281 87.550781 7.585938 L 87.550781 7.5625 C 87.507812 7.34375 87.546875 7.144531 87.667969 6.957031 C 87.792969 6.773438 87.96875 6.664062 88.203125 6.632812 C 88.371094 6.601562 88.535156 6.617188 88.6875 6.679688 C 88.8125 6.585938 88.945312 6.523438 89.082031 6.492188 C 89.207031 6.476562 89.332031 6.484375 89.453125 6.515625 C 89.578125 6.421875 89.710938 6.347656 89.847656 6.28125 C 90.296875 6.035156 92.539062 4.296875 93.324219 4.265625 L 93.347656 4.265625 C 93.488281 4.21875 93.621094 4.179688 93.742188 4.148438 C 94.671875 3.914062 95.476562 4 96.15625 4.402344 C 96.925781 4.835938 97.4375 5.621094 97.6875 6.75 C 97.886719 7.664062 97.996094 8.632812 98.011719 9.652344 C 98.039062 10.675781 97.992188 11.699219 97.859375 12.71875 C 97.726562 13.742188 97.5625 14.714844 97.359375 15.636719 C 97.160156 16.558594 96.625 17.789062 96.222656 18.660156 C 95.859375 19.449219 94.476562 21.539062 94.09375 22.5 L 96.503906 26.070312 L 96.6875 26.253906 C 97.410156 26.84375 98.058594 27.449219 98.636719 28.070312 C 98.78125 28.230469 98.851562 28.429688 98.84375 28.660156 C 98.832031 28.894531 98.746094 29.082031 98.585938 29.230469 L 98.492188 29.296875 C 98.507812 29.566406 98.410156 29.78125 98.203125 29.945312 C 98.058594 30.0625 97.894531 30.125 97.710938 30.128906 C 97.527344 30.132812 97.359375 30.082031 97.214844 29.976562 Z M 91.054688 8.027344 C 90.75 8.207031 90.511719 8.476562 90.265625 8.722656 C 90.730469 12.070312 90.976562 16.027344 91.007812 20.59375 L 91.238281 19.898438 C 91.332031 19.601562 93.171875 17.398438 93.511719 16.484375 L 94.433594 14.421875 C 94.636719 13.820312 94.757812 12.871094 94.984375 12.011719 C 95.207031 11.152344 95.351562 10.398438 95.414062 9.746094 C 95.535156 8.367188 95.320312 6.960938 94.777344 6.464844 C 94.34375 6.078125 91.992188 7.464844 91.054688 8.027344 Z M 91.054688 8.027344 "/>
<path style=" stroke:none;fill-rule:nonzero;fill:rgb(49.019608%,71.372549%,61.176471%);fill-opacity:1;" d="M 111.410156 2.222656 C 111.472656 2.625 111.546875 7.832031 111.578125 8.328125 C 111.609375 8.824219 111.625 9.242188 111.625 9.582031 L 111.625 12.136719 C 111.671875 17.15625 111.679688 20.835938 111.648438 23.171875 C 111.648438 23.542969 111.632812 24.082031 111.601562 24.789062 C 111.570312 25.492188 111.554688 26.050781 111.554688 26.460938 C 111.554688 26.871094 111.574219 27.351562 111.613281 27.898438 C 111.652344 28.449219 111.730469 28.941406 111.855469 29.375 C 112.042969 29.5 112.15625 29.671875 112.203125 29.886719 C 112.25 30.101562 112.21875 30.304688 112.109375 30.492188 L 112.019531 30.628906 C 111.925781 30.832031 111.769531 30.972656 111.554688 31.046875 C 111.339844 31.125 111.128906 31.117188 110.929688 31.023438 C 110.726562 30.933594 110.585938 30.777344 110.511719 30.5625 L 110.441406 30.375 C 109.914062 29.894531 109.558594 29.269531 109.375 28.492188 C 108.632812 29.359375 107.808594 30.035156 106.90625 30.515625 C 106 30.992188 105.09375 31.21875 104.179688 31.1875 C 103.113281 31.140625 102.179688 30.753906 101.386719 30.027344 C 100.589844 29.296875 100.003906 28.261719 99.636719 26.914062 C 99.109375 24.992188 99.027344 22.746094 99.390625 20.175781 C 99.753906 17.605469 100.453125 15.476562 101.488281 13.789062 C 101.9375 13.074219 102.542969 12.359375 103.3125 11.636719 C 104.074219 10.917969 104.859375 10.371094 105.664062 10 C 106.714844 9.519531 107.660156 9.425781 108.492188 9.722656 C 108.972656 9.890625 109.390625 10.179688 109.746094 10.582031 C 109.714844 9.390625 109.585938 3.53125 109.414062 2.523438 C 109.382812 2.304688 109.433594 2.109375 109.566406 1.929688 C 109.699219 1.753906 109.878906 1.640625 110.113281 1.59375 L 110.273438 1.59375 C 110.335938 1.5625 110.40625 1.539062 110.480469 1.523438 C 110.699219 1.492188 110.894531 1.542969 111.074219 1.675781 C 111.25 1.808594 111.363281 1.988281 111.410156 2.222656 Z M 101.027344 23.960938 C 100.949219 23.792969 100.878906 23.621094 100.816406 23.453125 C 100.816406 23.960938 100.847656 24.457031 100.910156 24.9375 C 100.925781 24.613281 100.964844 24.289062 101.027344 23.960938 Z M 102.625 20.292969 C 102.457031 19.8125 102.355469 19.191406 102.324219 18.433594 L 102.324219 18.292969 C 102.15625 19.007812 102.078125 19.820312 102.09375 20.734375 L 102.09375 21.128906 C 102.246094 20.851562 102.425781 20.570312 102.625 20.292969 Z M 108.609375 18.363281 C 108.640625 18.457031 108.65625 18.566406 108.65625 18.6875 C 108.703125 19.03125 108.710938 19.425781 108.679688 19.875 C 108.632812 20.910156 108.4375 21.910156 108.097656 22.871094 C 107.679688 24.09375 107.117188 25 106.40625 25.589844 C 105.433594 26.378906 104.320312 26.535156 103.066406 26.054688 C 102.914062 25.992188 102.734375 25.867188 102.535156 25.683594 C 102.550781 26.285156 102.65625 26.90625 102.859375 27.539062 C 103.152344 28.53125 103.648438 29.011719 104.34375 28.980469 C 104.683594 28.964844 105.050781 28.84375 105.445312 28.609375 C 105.839844 28.378906 106.1875 28.050781 106.5 27.632812 C 106.777344 27.277344 107.320312 26.425781 108.121094 25.078125 C 108.230469 24.890625 108.390625 24.769531 108.609375 24.707031 C 108.824219 24.644531 109.035156 24.675781 109.234375 24.800781 C 109.265625 24.816406 109.296875 24.839844 109.328125 24.867188 C 109.34375 24.636719 109.351562 24.425781 109.351562 24.242188 C 109.367188 23.730469 109.375 23.011719 109.375 22.082031 C 109.375 21.152344 109.382812 20.304688 109.398438 19.535156 C 109.414062 18.769531 109.445312 18.046875 109.492188 17.363281 C 109.597656 15.785156 109.660156 14.800781 109.675781 14.414062 C 109.613281 15.3125 109.398438 16.289062 109.027344 17.34375 C 108.902344 17.683594 108.765625 18.023438 108.609375 18.363281 Z M 103.648438 21.6875 C 103.246094 22.335938 102.953125 22.988281 102.765625 23.636719 L 103.554688 24.425781 C 103.601562 24.472656 103.648438 24.511719 103.691406 24.542969 C 104.34375 24.777344 104.90625 24.707031 105.386719 24.335938 C 105.863281 23.933594 106.257812 23.265625 106.570312 22.335938 C 106.722656 21.902344 106.847656 21.4375 106.941406 20.941406 C 106.230469 21.640625 105.5 21.988281 104.761719 21.988281 C 104.34375 21.988281 103.972656 21.886719 103.648438 21.6875 Z M 107.378906 17.109375 L 107.496094 16.785156 C 107.867188 15.746094 108.058594 14.824219 108.074219 14.019531 C 108.074219 13.847656 108.070312 13.699219 108.066406 13.566406 C 108.054688 13.433594 108.042969 13.335938 108.019531 13.265625 C 107.996094 13.195312 107.976562 13.140625 107.960938 13.101562 C 107.945312 13.0625 107.929688 13.035156 107.914062 13.019531 C 107.742188 12.925781 107.582031 12.878906 107.425781 12.871094 C 107.273438 12.863281 107.105469 12.894531 106.929688 12.960938 C 106.75 13.03125 106.582031 13.113281 106.429688 13.207031 C 106.273438 13.300781 106.074219 13.4375 105.828125 13.625 C 105.332031 13.996094 104.90625 14.335938 104.550781 14.648438 C 104.503906 14.722656 104.464844 14.800781 104.433594 14.878906 C 104.046875 15.652344 103.886719 16.824219 103.949219 18.386719 C 103.949219 18.480469 103.957031 18.574219 103.972656 18.664062 C 104.34375 18.277344 104.714844 17.960938 105.085938 17.714844 C 105.917969 17.125 106.683594 16.925781 107.378906 17.109375 Z M 106.589844 18.710938 C 106.421875 18.773438 106.230469 18.882812 106.011719 19.039062 C 105.578125 19.332031 105.121094 19.765625 104.644531 20.339844 C 104.675781 20.355469 104.714844 20.363281 104.761719 20.363281 C 105.160156 20.363281 105.609375 20.042969 106.105469 19.410156 C 106.273438 19.207031 106.4375 18.976562 106.589844 18.710938 Z M 107.125 11.253906 C 107.496094 11.222656 107.859375 11.269531 108.214844 11.394531 C 108.136719 11.332031 108.054688 11.285156 107.960938 11.253906 C 107.710938 11.179688 107.425781 11.171875 107.101562 11.230469 C 107.117188 11.230469 107.125 11.238281 107.125 11.253906 Z M 108.980469 26.820312 C 109.058594 26.820312 109.136719 26.828125 109.210938 26.84375 L 109.210938 26.425781 Z M 109.652344 13.253906 C 109.699219 13.484375 109.714844 13.742188 109.699219 14.019531 C 109.714844 13.742188 109.722656 13.492188 109.722656 13.277344 C 109.707031 13.261719 109.683594 13.253906 109.652344 13.253906 Z M 109.652344 13.253906 "/>
<path style=" stroke:none;fill-rule:nonzero;fill:rgb(49.019608%,71.372549%,61.176471%);fill-opacity:1;" d="M 130.210938 6.160156 C 130.378906 6.671875 130.761719 8.890625 130.886719 9.523438 C 131.007812 10.160156 131.09375 10.703125 131.140625 11.148438 L 131.328125 12.890625 C 131.402344 13.605469 131.464844 14.132812 131.511719 14.472656 C 131.929688 17.816406 132.167969 19.761719 132.230469 20.304688 C 133.25 19.21875 136.886719 15.949219 139.144531 14.074219 C 139.3125 13.933594 139.511719 13.875 139.734375 13.886719 C 139.957031 13.902344 140.140625 14.003906 140.28125 14.191406 C 140.464844 14.40625 140.511719 14.664062 140.417969 14.957031 C 140.605469 15.25 140.589844 15.546875 140.371094 15.839844 L 139.953125 16.375 C 140.0625 16.699219 139.992188 16.976562 139.746094 17.210938 C 139.21875 17.722656 138.523438 18.355469 137.660156 19.113281 L 135.292969 21.300781 L 134.0625 22.625 L 134.644531 22.929688 C 135.136719 23.144531 135.59375 23.371094 136.011719 23.601562 C 136.535156 23.773438 136.976562 23.964844 137.332031 24.183594 C 137.6875 24.386719 138.214844 24.730469 138.910156 25.226562 L 139.398438 25.578125 L 140.601562 26.132812 C 140.957031 26.273438 141.128906 26.527344 141.113281 26.902344 L 141.53125 27.203125 C 141.667969 27.3125 141.769531 27.449219 141.832031 27.621094 L 141.925781 27.667969 C 142.203125 27.839844 142.335938 28.085938 142.320312 28.410156 C 142.378906 28.644531 142.351562 28.851562 142.238281 29.039062 C 142.121094 29.222656 141.953125 29.34375 141.726562 29.398438 C 141.503906 29.453125 141.296875 29.425781 141.113281 29.316406 L 140.789062 29.109375 C 140.523438 29.277344 140.253906 29.292969 139.976562 29.15625 C 139.480469 28.890625 138.957031 28.585938 138.398438 28.238281 C 137.84375 27.886719 137.402344 27.605469 137.078125 27.390625 L 135.570312 26.320312 L 134.25 25.390625 C 134 25.207031 133.886719 24.957031 133.902344 24.648438 C 133.574219 24.554688 133.273438 24.460938 132.996094 24.367188 C 132.871094 24.320312 132.765625 24.246094 132.671875 24.136719 L 132.625 24.207031 C 132.765625 25.785156 132.847656 27.25 132.878906 28.597656 C 132.878906 28.8125 132.804688 29.007812 132.660156 29.175781 C 132.511719 29.347656 132.324219 29.433594 132.089844 29.433594 L 132.253906 30.011719 C 132.332031 30.230469 132.316406 30.4375 132.207031 30.628906 C 132.097656 30.824219 131.9375 30.949219 131.71875 31.011719 C 131.660156 31.042969 131.597656 31.058594 131.535156 31.058594 C 131.425781 31.230469 131.28125 31.34375 131.09375 31.40625 C 130.878906 31.484375 130.667969 31.472656 130.46875 31.371094 C 130.265625 31.273438 130.136719 31.113281 130.074219 30.898438 C 129.933594 30.480469 129.820312 30.058594 129.726562 29.640625 C 129.632812 29.222656 129.558594 28.738281 129.507812 28.191406 C 129.453125 27.640625 129.414062 27.230469 129.390625 26.960938 C 129.367188 26.6875 129.339844 26.214844 129.308594 25.542969 C 129.277344 24.867188 129.253906 24.46875 129.238281 24.34375 L 129.167969 22.996094 C 129.03125 21.929688 128.890625 20.675781 128.753906 19.234375 C 128.707031 18.800781 128.621094 17.898438 128.496094 16.527344 C 128.375 15.15625 128.277344 14.152344 128.207031 13.507812 C 128.136719 12.867188 128.03125 12.011719 127.894531 10.953125 C 127.753906 9.890625 127.371094 7.28125 127.21875 6.414062 C 127.171875 6.199219 127.210938 5.996094 127.332031 5.8125 C 127.457031 5.625 127.636719 5.515625 127.867188 5.484375 C 128.050781 5.441406 128.230469 5.464844 128.398438 5.566406 C 128.570312 5.667969 128.695312 5.804688 128.769531 5.972656 C 128.863281 5.804688 129.003906 5.695312 129.1875 5.648438 C 129.40625 5.570312 129.613281 5.585938 129.816406 5.695312 C 130.015625 5.804688 130.148438 5.957031 130.210938 6.160156 Z M 130.210938 6.160156 "/>
<path style=" stroke:none;fill-rule:nonzero;fill:rgb(49.019608%,71.372549%,61.176471%);fill-opacity:1;" d="M 148.609375 7.953125 C 148.902344 7.65625 149.28125 7.363281 149.746094 7.070312 C 150.210938 6.773438 150.65625 6.566406 151.089844 6.441406 C 151.183594 6.425781 151.269531 6.410156 151.347656 6.394531 C 151.40625 6.347656 151.460938 6.308594 151.507812 6.277344 C 151.972656 6 152.398438 5.992188 152.785156 6.257812 C 153.125 6.488281 153.285156 6.835938 153.269531 7.300781 C 153.441406 7.671875 153.503906 8.144531 153.457031 8.71875 C 153.394531 9.554688 152.839844 10.746094 151.785156 12.296875 C 151.710938 12.421875 151.523438 12.699219 151.230469 13.132812 L 150.628906 14.039062 C 150.519531 14.191406 150.386719 14.410156 150.234375 14.6875 C 150.078125 14.96875 149.957031 15.207031 149.863281 15.410156 C 149.800781 15.578125 149.691406 15.710938 149.539062 15.804688 C 149.460938 16.003906 149.328125 16.152344 149.144531 16.246094 C 148.957031 16.339844 148.761719 16.359375 148.550781 16.304688 C 148.34375 16.25 148.183594 16.128906 148.078125 15.945312 C 147.875 16.035156 147.675781 16.042969 147.472656 15.964844 C 147.273438 15.890625 147.125 15.75 147.03125 15.546875 C 147.015625 15.488281 146.902344 15.214844 146.683594 14.734375 C 146.5625 14.441406 146.445312 14.207031 146.335938 14.039062 C 146.214844 13.804688 146.074219 13.582031 145.917969 13.363281 C 145.765625 13.148438 145.5625 12.890625 145.316406 12.597656 L 144.761719 11.878906 C 144.019531 10.886719 143.585938 9.933594 143.460938 9.019531 C 143.324219 7.953125 143.359375 7.132812 143.578125 6.558594 C 143.703125 6.1875 143.898438 5.898438 144.167969 5.699219 C 144.4375 5.496094 144.761719 5.394531 145.132812 5.394531 C 145.640625 5.410156 146.199219 5.652344 146.800781 6.117188 C 147.3125 6.519531 147.804688 7.039062 148.285156 7.671875 C 148.394531 7.8125 148.449219 7.976562 148.449219 8.160156 C 148.492188 8.082031 148.546875 8.015625 148.609375 7.953125 Z M 147.589844 9.902344 C 146.957031 8.972656 146.414062 8.277344 145.964844 7.8125 C 145.84375 7.671875 145.726562 7.5625 145.617188 7.488281 C 145.664062 7.59375 145.734375 7.734375 145.828125 7.90625 C 146.011719 8.246094 146.304688 8.6875 146.707031 9.230469 L 147.402344 10.113281 C 147.742188 10.546875 148.015625 10.90625 148.214844 11.191406 C 148.417969 11.480469 148.5625 11.714844 148.65625 11.902344 C 148.765625 12.117188 148.863281 12.34375 148.957031 12.574219 C 149.238281 11.921875 149.566406 11.226562 149.957031 10.484375 C 150.03125 10.3125 150.347656 9.800781 150.90625 8.949219 L 151.253906 8.324219 C 150.632812 8.726562 149.878906 9.378906 148.980469 10.273438 C 148.8125 10.429688 148.617188 10.507812 148.402344 10.507812 C 148.183594 10.507812 147.992188 10.429688 147.820312 10.273438 C 147.730469 10.183594 147.667969 10.074219 147.636719 9.949219 Z M 149.933594 20.242188 C 150.054688 21.292969 150.09375 22.726562 150.046875 24.539062 C 150 26.613281 150 27.992188 150.046875 28.675781 C 150.0625 28.84375 150.015625 29.007812 149.910156 29.164062 C 149.863281 29.425781 149.714844 29.617188 149.46875 29.742188 L 149.46875 29.90625 C 149.46875 30.121094 149.386719 30.3125 149.222656 30.476562 C 149.0625 30.636719 148.871094 30.71875 148.65625 30.71875 C 148.285156 30.71875 148.03125 30.539062 147.890625 30.183594 C 147.78125 30.089844 147.699219 29.976562 147.636719 29.835938 C 147.542969 29.601562 147.457031 29.355469 147.378906 29.09375 C 147.304688 28.984375 147.25 28.859375 147.21875 28.722656 L 147.195312 28.441406 C 146.949219 27.558594 146.753906 26.644531 146.617188 25.699219 C 146.476562 24.757812 146.347656 23.636719 146.234375 22.34375 C 146.117188 21.050781 146.027344 20.164062 145.964844 19.683594 C 145.933594 19.46875 145.988281 19.269531 146.128906 19.089844 C 146.265625 18.914062 146.453125 18.808594 146.683594 18.777344 C 147.070312 18.730469 147.351562 18.886719 147.519531 19.242188 C 147.644531 18.949219 147.867188 18.785156 148.191406 18.753906 C 148.425781 18.738281 148.625 18.804688 148.796875 18.953125 C 148.964844 19.097656 149.058594 19.28125 149.074219 19.496094 L 149.074219 19.519531 C 149.289062 19.503906 149.480469 19.566406 149.640625 19.707031 C 149.804688 19.847656 149.898438 20.023438 149.933594 20.242188 Z M 149.933594 20.242188 "/>
<path style=" stroke:none;fill-rule:nonzero;fill:rgb(49.019608%,71.372549%,61.176471%);fill-opacity:1;" d="M 166.773438 15.902344 C 166.648438 15.996094 166.519531 16.132812 166.378906 16.320312 C 166.148438 16.582031 165.796875 17.070312 165.335938 17.785156 C 164.300781 19.378906 163.480469 20.6875 162.878906 21.710938 C 162.164062 23.492188 161.570312 25.125 161.089844 26.613281 C 161 26.9375 160.78125 27.128906 160.441406 27.191406 C 160.503906 28.554688 160.582031 29.757812 160.675781 30.792969 L 160.699219 30.910156 C 160.804688 31.234375 160.734375 31.523438 160.488281 31.769531 C 160.332031 31.925781 160.15625 32.007812 159.953125 32.023438 C 159.738281 32.039062 159.542969 31.972656 159.363281 31.828125 C 159.1875 31.679688 159.089844 31.5 159.074219 31.28125 L 159.074219 31.117188 L 159.003906 30.957031 C 158.894531 31.171875 158.71875 31.3125 158.472656 31.375 C 158.253906 31.421875 158.050781 31.386719 157.855469 31.269531 C 157.664062 31.152344 157.542969 30.988281 157.496094 30.769531 C 157.15625 29.34375 156.933594 27.890625 156.824219 26.402344 C 156.714844 24.917969 156.652344 23.191406 156.636719 21.222656 L 156.636719 19.710938 C 156.636719 18.816406 156.636719 18.25 156.628906 18.015625 C 156.621094 17.785156 156.609375 17.304688 156.59375 16.574219 C 156.578125 15.847656 156.558594 15.292969 156.535156 14.914062 C 156.511719 14.535156 156.472656 14.0625 156.417969 13.5 C 156.363281 12.933594 156.300781 12.410156 156.222656 11.929688 C 156.191406 11.710938 156.246094 11.511719 156.382812 11.324219 C 156.523438 11.140625 156.699219 11.03125 156.917969 11 C 157.195312 10.96875 157.433594 11.0625 157.636719 11.277344 L 157.613281 11.117188 C 157.566406 10.898438 157.605469 10.695312 157.730469 10.5 C 157.851562 10.308594 158.023438 10.191406 158.238281 10.152344 C 158.457031 10.113281 158.660156 10.15625 158.851562 10.28125 C 159.046875 10.402344 159.160156 10.574219 159.191406 10.792969 C 159.746094 13.625 160.109375 17.589844 160.28125 22.6875 L 161.949219 19.175781 C 162.445312 18.1875 162.890625 17.335938 163.292969 16.621094 L 164.152344 14.695312 C 164.570312 13.765625 164.878906 13.144531 165.078125 12.835938 C 165.714844 11.875 166.449219 11.394531 167.28125 11.394531 C 168.320312 11.394531 169.183594 12.085938 169.878906 13.464844 C 170.019531 13.742188 170.152344 14.042969 170.273438 14.367188 C 170.398438 14.695312 170.527344 15.054688 170.65625 15.449219 C 170.789062 15.84375 170.863281 16.050781 170.878906 16.066406 C 171.324219 17.335938 171.6875 18.953125 171.96875 20.921875 C 172.246094 22.886719 172.398438 24.769531 172.417969 26.566406 C 172.441406 28.363281 172.375 30.011719 172.222656 31.515625 C 172.191406 31.746094 172.085938 31.933594 171.910156 32.070312 C 171.730469 32.210938 171.535156 32.265625 171.320312 32.234375 C 171.164062 32.375 170.976562 32.441406 170.761719 32.441406 C 170.546875 32.441406 170.355469 32.363281 170.195312 32.199219 C 170.03125 32.039062 169.949219 31.847656 169.949219 31.628906 C 169.949219 29.539062 169.71875 26.242188 169.253906 21.734375 C 169.285156 22.414062 169.332031 23.777344 169.394531 25.820312 C 169.472656 28.53125 169.59375 30.539062 169.765625 31.839844 C 169.796875 32.054688 169.742188 32.253906 169.601562 32.429688 C 169.464844 32.609375 169.28125 32.714844 169.058594 32.746094 C 168.832031 32.777344 168.632812 32.722656 168.453125 32.582031 C 168.277344 32.441406 168.171875 32.257812 168.140625 32.023438 C 167.972656 30.617188 167.847656 28.5625 167.769531 25.867188 C 167.691406 23.019531 167.601562 21.003906 167.492188 19.828125 C 167.414062 18.945312 167.304688 18.125 167.167969 17.363281 C 167.058594 16.855469 166.949219 16.4375 166.84375 16.113281 C 166.8125 16.035156 166.789062 15.964844 166.773438 15.902344 Z M 168.8125 17.320312 C 168.796875 17.273438 168.773438 17.1875 168.746094 17.0625 C 168.851562 17.558594 168.929688 18 168.976562 18.386719 C 168.976562 18.234375 168.921875 17.875 168.8125 17.320312 Z M 168.8125 17.320312 "/>
<path style=" stroke:none;fill-rule:nonzero;fill:rgb(49.019608%,71.372549%,61.176471%);fill-opacity:1;" d="M 194.234375 12.753906 C 194.3125 12.660156 194.390625 12.574219 194.464844 12.496094 C 194.808594 12.15625 195.164062 11.878906 195.535156 11.660156 C 195.78125 11.507812 196.035156 11.382812 196.300781 11.289062 C 197.148438 10.996094 198.0625 11.078125 199.035156 11.546875 C 199.730469 11.824219 200.320312 12.25 200.796875 12.824219 L 200.890625 12.914062 C 201.105469 13.132812 201.308594 13.355469 201.492188 13.589844 C 201.789062 13.992188 202.019531 14.417969 202.191406 14.867188 C 202.839844 16.089844 203.125 17.273438 203.046875 18.421875 C 203.046875 18.453125 203.042969 18.535156 203.035156 18.664062 C 203.027344 18.796875 203.015625 18.902344 203 18.980469 C 202.953125 19.351562 202.824219 19.652344 202.605469 19.886719 C 202.5625 19.949219 202.507812 19.996094 202.445312 20.035156 C 202.382812 20.074219 202.335938 20.09375 202.304688 20.09375 L 202.234375 20.117188 C 202.191406 20.132812 202.136719 20.148438 202.074219 20.164062 C 201.980469 20.195312 201.847656 20.226562 201.679688 20.257812 C 201.402344 20.304688 201.007812 20.363281 200.496094 20.441406 L 196.949219 20.929688 L 194.351562 21.253906 L 194.074219 21.300781 C 194.027344 21.984375 193.996094 22.640625 193.980469 23.277344 C 194.226562 24.808594 194.605469 26.082031 195.117188 27.085938 C 195.210938 27.289062 195.363281 27.542969 195.582031 27.851562 L 195.929688 28.386719 C 196.253906 28.652344 196.707031 28.929688 197.296875 29.222656 C 197.511719 29.316406 197.660156 29.480469 197.738281 29.710938 C 198.0625 29.867188 198.214844 30.128906 198.199219 30.5 C 198.183594 30.71875 198.09375 30.902344 197.921875 31.058594 C 197.753906 31.214844 197.558594 31.285156 197.34375 31.269531 L 197.179688 31.269531 C 196.699219 31.238281 196.320312 31.203125 196.03125 31.164062 C 195.746094 31.125 195.375 31.007812 194.917969 30.816406 C 194.464844 30.621094 194.089844 30.355469 193.792969 30.015625 C 193.066406 29.195312 192.613281 27.816406 192.425781 25.878906 C 191.933594 24.53125 191.636719 23.105469 191.546875 21.605469 C 191.375 21.621094 191.25 21.636719 191.175781 21.648438 C 190.925781 21.667969 190.71875 21.597656 190.546875 21.441406 C 190.238281 21.488281 189.953125 21.535156 189.691406 21.582031 C 189.472656 21.613281 189.273438 21.558594 189.085938 21.417969 C 188.902344 21.277344 188.792969 21.101562 188.761719 20.882812 C 188.730469 20.667969 188.785156 20.464844 188.925781 20.28125 C 189.0625 20.09375 189.242188 19.984375 189.457031 19.953125 C 189.8125 19.910156 190.515625 19.792969 191.566406 19.605469 C 191.644531 18.660156 191.800781 17.75 192.03125 16.863281 C 192.402344 15.519531 192.984375 14.332031 193.769531 13.3125 C 193.925781 13.109375 194.082031 12.921875 194.234375 12.753906 Z M 196.277344 19.117188 L 196.808594 19.003906 C 197.472656 18.863281 198.039062 18.714844 198.503906 18.558594 C 199.199219 18.296875 199.730469 18.027344 200.101562 17.75 C 200.148438 17.671875 200.195312 17.53125 200.242188 17.328125 C 200.289062 17.128906 200.320312 16.878906 200.335938 16.585938 C 200.378906 15.734375 200.234375 14.992188 199.894531 14.355469 C 198.964844 13.363281 197.976562 13.007812 196.925781 13.285156 C 196.429688 13.410156 195.972656 13.929688 195.554688 14.84375 C 195.324219 15.324219 195.039062 16.199219 194.699219 17.46875 C 194.558594 17.933594 194.4375 18.515625 194.328125 19.210938 C 195.039062 19.132812 195.679688 19.105469 196.253906 19.117188 Z M 196.277344 19.117188 "/>
<path style=" stroke:none;fill-rule:nonzero;fill:rgb(49.019608%,71.372549%,61.176471%);fill-opacity:1;" d="M 214.945312 24.183594 C 214.914062 24.386719 214.820312 24.550781 214.664062 24.683594 C 214.511719 24.8125 214.332031 24.878906 214.132812 24.878906 C 214.039062 24.878906 213.746094 24.910156 213.25 24.972656 C 212.523438 25.050781 212.03125 25.097656 211.765625 25.113281 C 211.132812 25.171875 210.628906 25.207031 210.257812 25.207031 C 209.996094 25.207031 209.78125 25.183594 209.609375 25.136719 C 209.503906 25.121094 209.410156 25.097656 209.332031 25.066406 L 208.796875 25.296875 C 208.78125 25.296875 208.753906 25.320312 208.707031 25.367188 C 208.566406 25.460938 208.472656 25.515625 208.425781 25.53125 C 208.304688 25.605469 208.179688 25.660156 208.054688 25.691406 C 208.117188 26.761719 208.148438 27.769531 208.148438 28.714844 C 208.148438 28.960938 208.054688 29.164062 207.871094 29.316406 L 207.824219 29.945312 C 207.792969 30.160156 207.691406 30.339844 207.523438 30.480469 C 207.351562 30.617188 207.152344 30.679688 206.921875 30.664062 C 206.734375 30.632812 206.574219 30.550781 206.445312 30.421875 C 206.3125 30.289062 206.230469 30.128906 206.203125 29.945312 C 206.109375 29.804688 206.0625 29.648438 206.0625 29.480469 C 206.0625 27.992188 205.914062 25.5 205.621094 22 C 205.527344 20.882812 205.453125 19.390625 205.390625 17.515625 C 205.203125 14.03125 205.089844 12.054688 205.042969 11.589844 C 204.917969 10.351562 204.738281 9.214844 204.507812 8.175781 C 204.460938 8.007812 204.476562 7.84375 204.554688 7.6875 L 204.554688 7.664062 C 204.507812 7.449219 204.546875 7.246094 204.671875 7.0625 C 204.792969 6.875 204.972656 6.765625 205.203125 6.734375 C 205.375 6.707031 205.535156 6.71875 205.691406 6.78125 C 205.816406 6.6875 205.945312 6.628906 206.085938 6.597656 C 206.207031 6.582031 206.332031 6.589844 206.457031 6.621094 C 206.578125 6.527344 206.710938 6.449219 206.851562 6.386719 C 207.296875 6.140625 207.917969 6 208.707031 5.96875 L 208.730469 5.96875 C 208.867188 5.921875 209 5.886719 209.121094 5.851562 C 210.050781 5.621094 210.855469 5.707031 211.535156 6.109375 C 212.308594 6.542969 212.816406 7.324219 213.066406 8.457031 C 213.265625 9.371094 213.375 10.335938 213.390625 11.359375 C 213.421875 12.382812 213.371094 13.402344 213.238281 14.425781 C 213.109375 15.449219 212.941406 16.417969 212.742188 17.339844 C 212.539062 18.261719 212.292969 19.179688 212 20.09375 C 211.78125 20.804688 211.480469 21.644531 211.09375 22.601562 L 211.324219 22.554688 L 211.582031 22.511719 C 212.476562 22.246094 213.34375 22.054688 214.179688 21.929688 C 214.394531 21.898438 214.597656 21.953125 214.78125 22.089844 C 214.96875 22.230469 215.074219 22.410156 215.105469 22.625 L 215.105469 22.742188 C 215.339844 22.882812 215.460938 23.082031 215.476562 23.347656 C 215.492188 23.53125 215.449219 23.703125 215.347656 23.859375 C 215.25 24.011719 215.113281 24.121094 214.945312 24.183594 Z M 208.054688 8.128906 C 207.777344 8.347656 207.515625 8.578125 207.269531 8.828125 C 207.730469 12.171875 207.980469 16.128906 208.011719 20.699219 L 208.242188 20 C 208.335938 19.707031 208.550781 19.105469 208.890625 18.1875 L 209.726562 15.914062 C 209.925781 15.308594 210.140625 14.578125 210.363281 13.71875 C 210.585938 12.859375 210.730469 12.101562 210.792969 11.453125 C 210.917969 10.074219 210.707031 9.136719 210.167969 8.640625 C 209.734375 8.253906 209.03125 8.082031 208.054688 8.128906 Z M 208.054688 8.128906 "/>
<path style=" stroke:none;fill-rule:nonzero;fill:rgb(49.019608%,71.372549%,61.176471%);fill-opacity:1;" d="M 231.105469 7.640625 C 231.183594 8.664062 231.484375 12.808594 232.011719 20.070312 C 232.027344 20.289062 232.066406 20.773438 232.128906 21.523438 C 232.1875 22.273438 232.226562 22.847656 232.242188 23.242188 C 232.257812 23.636719 232.261719 24.160156 232.253906 24.808594 C 232.246094 25.460938 232.191406 26.058594 232.09375 26.597656 C 231.992188 27.140625 231.851562 27.667969 231.664062 28.179688 L 231.617188 28.273438 C 231.585938 28.347656 231.5625 28.417969 231.546875 28.480469 C 230.992188 30.046875 229.925781 31.230469 228.347656 32.035156 C 227.496094 32.515625 226.453125 32.863281 225.214844 33.082031 C 224.011719 33.265625 222.820312 33.296875 221.644531 33.171875 C 221.042969 33.140625 220.453125 33.082031 219.882812 32.988281 C 219.726562 32.957031 219.597656 32.886719 219.488281 32.777344 L 219.023438 32.664062 C 218.808594 32.601562 218.644531 32.472656 218.527344 32.277344 C 218.410156 32.085938 218.382812 31.878906 218.445312 31.664062 C 218.523438 31.414062 218.667969 31.238281 218.886719 31.128906 C 218.917969 31.050781 218.957031 30.972656 219.003906 30.898438 C 219.125 30.710938 219.296875 30.59375 219.511719 30.546875 C 219.726562 30.5 219.929688 30.539062 220.113281 30.664062 C 220.128906 30.664062 220.292969 30.78125 220.601562 31.011719 C 220.710938 31.105469 220.796875 31.160156 220.855469 31.175781 C 221.121094 31.269531 221.59375 31.296875 222.28125 31.257812 C 222.972656 31.21875 223.757812 31.121094 224.636719 30.96875 C 226.507812 30.625 227.761719 30.253906 228.394531 29.851562 C 228.5625 29.742188 228.71875 29.617188 228.859375 29.480469 C 229.121094 29.140625 229.328125 28.726562 229.484375 28.25 C 229.730469 27.488281 229.855469 26.515625 229.855469 25.320312 C 229.871094 24.128906 229.816406 22.90625 229.691406 21.648438 L 229.578125 19.839844 C 228.433594 22.363281 226.679688 24.019531 224.3125 24.808594 C 223.863281 24.964844 223.414062 25.070312 222.96875 25.125 C 222.519531 25.179688 222.027344 25.15625 221.496094 25.054688 C 220.960938 24.953125 220.484375 24.757812 220.070312 24.460938 C 219.046875 23.75 218.421875 22.648438 218.191406 21.164062 C 218.066406 20.433594 218.050781 19.296875 218.144531 17.75 C 218.296875 15.070312 218.855469 12.738281 219.8125 10.753906 C 221.1875 7.90625 223.128906 6.457031 225.632812 6.410156 C 226.964844 6.378906 228.140625 6.730469 229.160156 7.457031 C 229.28125 7.363281 229.429688 7.308594 229.597656 7.292969 C 229.753906 7.0625 229.964844 6.929688 230.226562 6.898438 C 230.457031 6.882812 230.660156 6.949219 230.828125 7.097656 C 231 7.242188 231.089844 7.425781 231.105469 7.640625 Z M 219.835938 17.003906 C 220.238281 14 221.1875 11.453125 222.6875 9.359375 C 222.164062 9.902344 221.691406 10.601562 221.273438 11.453125 C 220.53125 13 220.054688 14.851562 219.835938 17.003906 Z M 224.847656 20.394531 C 224.707031 20.441406 224.566406 20.480469 224.429688 20.511719 C 223.640625 20.652344 222.929688 20.324219 222.292969 19.535156 C 222.109375 19.320312 221.976562 19.011719 221.902344 18.605469 C 221.855469 18.34375 221.824219 18.035156 221.808594 17.679688 C 221.808594 17.601562 221.816406 17.152344 221.832031 16.332031 C 221.847656 15.726562 221.863281 15.285156 221.878906 15.007812 C 221.613281 15.964844 221.4375 17.003906 221.34375 18.121094 C 221.25 19.078125 221.257812 19.96875 221.367188 20.792969 C 221.445312 21.332031 221.558594 21.75 221.714844 22.046875 C 221.808594 22.230469 221.902344 22.324219 221.992188 22.324219 C 222.503906 22.355469 222.96875 22.269531 223.382812 22.070312 C 223.710938 21.914062 224.097656 21.503906 224.542969 20.835938 Z M 228.023438 11.148438 L 228.023438 11.101562 C 228.085938 10.222656 227.921875 9.710938 227.535156 9.570312 C 227.132812 9.429688 226.792969 9.40625 226.515625 9.5 C 226.285156 9.578125 225.9375 9.800781 225.472656 10.175781 C 225.023438 10.546875 224.660156 10.941406 224.382812 11.359375 C 224.101562 11.777344 223.902344 12.28125 223.777344 12.867188 C 223.65625 13.457031 223.578125 13.976562 223.546875 14.425781 C 223.5 14.875 223.46875 15.527344 223.453125 16.375 C 223.4375 17.167969 223.429688 17.578125 223.429688 17.609375 C 223.445312 17.886719 223.46875 18.121094 223.5 18.304688 L 223.546875 18.515625 C 223.777344 18.792969 223.980469 18.925781 224.148438 18.910156 C 224.351562 18.863281 224.589844 18.667969 224.871094 18.328125 C 225.332031 17.753906 225.796875 16.878906 226.261719 15.703125 C 226.492188 15.097656 226.886719 13.773438 227.441406 11.730469 C 227.519531 11.4375 227.714844 11.242188 228.023438 11.148438 Z M 229.230469 13.449219 C 229.152344 13.789062 229.105469 13.984375 229.089844 14.03125 C 228.765625 15.488281 228.183594 17.160156 227.351562 19.046875 C 226.855469 20.132812 226.367188 21.03125 225.890625 21.742188 C 225.6875 22.054688 225.488281 22.324219 225.285156 22.554688 C 227.480469 21.148438 228.8125 18.484375 229.273438 14.5625 Z M 229.230469 13.449219 "/>
<path style=" stroke:none;fill-rule:nonzero;fill:rgb(49.019608%,71.372549%,61.176471%);fill-opacity:1;" d="M 263.578125 30.0625 C 263.417969 30.1875 263.234375 30.238281 263.03125 30.226562 C 262.828125 30.210938 262.65625 30.136719 262.511719 29.996094 C 262.445312 29.929688 262.214844 29.746094 261.816406 29.445312 C 261.242188 28.992188 260.855469 28.679688 260.65625 28.507812 C 260.160156 28.105469 259.777344 27.777344 259.515625 27.519531 C 259.324219 27.335938 256.4375 25.183594 256.265625 25.136719 C 256.160156 25.121094 256.066406 25.097656 255.988281 25.066406 L 255.453125 25.296875 C 255.441406 25.296875 255.410156 25.320312 255.363281 25.367188 C 255.222656 25.460938 255.128906 25.515625 255.085938 25.53125 C 254.960938 25.605469 254.835938 25.660156 254.714844 25.691406 C 254.773438 26.761719 254.824219 26.253906 254.824219 27.199219 C 254.824219 27.449219 254.730469 27.648438 254.546875 27.804688 L 254.503906 29.886719 C 254.472656 30.101562 254.371094 30.28125 254.203125 30.421875 C 254.03125 30.558594 253.808594 30.679688 253.578125 30.664062 C 253.390625 30.632812 253.230469 30.550781 253.101562 30.421875 C 252.96875 30.289062 252.890625 30.128906 252.859375 29.945312 C 252.765625 29.804688 252.71875 29.648438 252.71875 29.480469 C 252.71875 27.992188 252.570312 25.5 252.277344 22 C 252.183594 20.882812 252.109375 19.390625 252.046875 17.515625 C 251.859375 14.03125 251.746094 12.054688 251.699219 11.589844 C 251.574219 10.351562 251.398438 9.214844 251.164062 8.175781 C 251.117188 8.007812 251.132812 7.84375 251.210938 7.6875 L 251.210938 7.664062 C 251.164062 7.449219 251.203125 7.246094 251.328125 7.0625 C 251.449219 6.875 251.628906 6.765625 251.859375 6.734375 C 252.03125 6.707031 252.191406 6.71875 252.347656 6.78125 C 252.46875 6.6875 252.601562 6.628906 252.742188 6.597656 C 252.863281 6.582031 252.988281 6.589844 253.113281 6.621094 C 253.234375 6.527344 253.367188 6.449219 253.507812 6.386719 C 253.957031 6.140625 257.855469 6.640625 258.511719 7.082031 L 258.527344 7.09375 C 258.667969 7.140625 258.796875 7.183594 258.917969 7.234375 C 259.804688 7.589844 259.851562 7.480469 260.441406 8.003906 C 261.117188 8.578125 261.472656 9.441406 261.5 10.597656 C 261.523438 11.535156 261.445312 12.503906 261.269531 13.511719 C 261.105469 14.519531 260.863281 15.515625 260.539062 16.492188 C 260.214844 17.472656 259.867188 18.394531 259.496094 19.261719 C 259.125 20.128906 258.949219 19.179688 258.65625 20.09375 C 258.4375 20.804688 258.136719 21.644531 257.75 22.601562 L 257.984375 22.554688 L 262.339844 26.515625 C 263.164062 26.953125 263.917969 27.417969 264.601562 27.914062 C 264.777344 28.042969 264.882812 28.222656 264.921875 28.453125 C 264.957031 28.683594 264.910156 28.886719 264.78125 29.0625 L 264.699219 29.144531 C 264.769531 29.40625 264.714844 29.636719 264.542969 29.835938 C 264.425781 29.980469 264.277344 30.074219 264.097656 30.113281 C 263.917969 30.15625 263.742188 30.136719 263.578125 30.0625 Z M 257.09375 9.1875 C 256.625 9.101562 254.171875 8.578125 253.925781 8.828125 C 254.550781 13.335938 254.640625 17.089844 254.667969 20.699219 L 254.898438 20 C 254.992188 19.707031 255.050781 20.195312 255.558594 19.363281 L 256.808594 17.285156 C 257.121094 16.730469 257.46875 16.054688 257.851562 15.25 C 258.234375 14.449219 258.515625 13.734375 258.699219 13.109375 C 259.082031 11.777344 259.054688 10.820312 258.617188 10.230469 C 258.265625 9.765625 258.050781 9.363281 257.09375 9.1875 Z M 257.09375 9.1875 "/>
<path style=" stroke:none;fill-rule:nonzero;fill:rgb(49.019608%,71.372549%,61.176471%);fill-opacity:1;" d="M 271.410156 25.699219 C 271.566406 26.101562 271.726562 26.488281 271.898438 26.859375 C 272.332031 27.710938 272.824219 28.410156 273.382812 28.953125 C 273.863281 29.042969 274.550781 29.050781 275.445312 28.972656 C 275.632812 28.957031 275.800781 29.003906 275.957031 29.113281 C 276.265625 29.035156 276.574219 28.953125 276.882812 28.859375 C 277.054688 28.796875 277.222656 28.796875 277.394531 28.859375 C 277.5625 28.75 277.753906 28.71875 277.960938 28.765625 C 278.171875 28.8125 278.335938 28.917969 278.460938 29.089844 C 278.585938 29.277344 278.628906 29.480469 278.589844 29.707031 C 278.550781 29.929688 278.4375 30.105469 278.253906 30.230469 L 278.066406 30.34375 C 278.082031 30.699219 277.929688 30.957031 277.601562 31.113281 C 276.519531 31.652344 275.453125 31.761719 274.402344 31.4375 C 274.355469 31.4375 274.308594 31.429688 274.265625 31.414062 C 274.25 31.445312 274.226562 31.476562 274.195312 31.507812 C 274.054688 31.675781 273.871094 31.769531 273.648438 31.785156 C 273.425781 31.800781 273.226562 31.730469 273.058594 31.574219 L 272.917969 31.527344 C 272.824219 31.496094 272.683594 31.445312 272.488281 31.367188 C 272.296875 31.289062 272.152344 31.226562 272.0625 31.179688 C 271.96875 31.136719 271.84375 31.066406 271.691406 30.984375 C 271.535156 30.898438 271.386719 30.796875 271.25 30.683594 C 271.109375 30.566406 270.960938 30.429688 270.808594 30.273438 C 269.957031 29.347656 269.308594 27.773438 268.859375 25.558594 L 268.675781 24.511719 C 267.746094 21.015625 267.414062 16.886719 267.675781 12.132812 L 266.890625 12.039062 L 266.542969 12.039062 C 266.386719 12.039062 266.246094 12.007812 266.125 11.945312 L 265.265625 11.828125 L 265.242188 11.828125 C 264.996094 11.796875 264.800781 11.667969 264.664062 11.433594 C 264.507812 11.371094 264.386719 11.261719 264.292969 11.109375 C 264.199219 10.953125 264.160156 10.785156 264.175781 10.597656 L 264.175781 10.414062 C 264.207031 10.179688 264.3125 9.992188 264.488281 9.855469 C 264.667969 9.714844 264.863281 9.660156 265.082031 9.691406 C 266.023438 9.816406 266.953125 9.902344 267.863281 9.945312 L 267.933594 9.226562 C 267.964844 8.886719 267.988281 8.609375 268 8.390625 L 268 8.113281 C 268 8.035156 268.011719 7.957031 268.027344 7.878906 C 268.039062 7.539062 268.050781 7.214844 268.050781 6.902344 C 268.050781 6.671875 268.125 6.472656 268.28125 6.3125 C 268.433594 6.148438 268.621094 6.066406 268.835938 6.066406 C 268.929688 6.066406 269.015625 6.074219 269.09375 6.089844 C 269.167969 6.078125 269.246094 6.066406 269.324219 6.066406 C 269.496094 6.066406 269.648438 6.113281 269.789062 6.207031 C 269.878906 6.160156 269.972656 6.136719 270.066406 6.136719 C 270.296875 6.121094 270.496094 6.191406 270.65625 6.347656 C 270.820312 6.5 270.910156 6.6875 270.925781 6.902344 C 270.972656 7.863281 271 8.878906 271.015625 9.945312 C 272.394531 9.886719 273.699219 9.722656 274.9375 9.460938 C 275.152344 9.414062 275.355469 9.449219 275.550781 9.5625 C 275.746094 9.679688 275.863281 9.847656 275.910156 10.0625 C 275.925781 10.109375 275.933594 10.148438 275.933594 10.179688 C 275.949219 10.179688 275.957031 10.1875 275.957031 10.203125 L 276.351562 10.203125 C 276.566406 10.203125 276.757812 10.285156 276.917969 10.449219 C 277.082031 10.609375 277.164062 10.800781 277.164062 11.015625 C 277.164062 11.234375 277.082031 11.421875 276.917969 11.585938 C 276.757812 11.746094 276.566406 11.828125 276.351562 11.828125 C 275.777344 11.828125 275.175781 11.835938 274.542969 11.851562 L 274.519531 11.851562 C 274.394531 12.148438 274.171875 12.308594 273.847656 12.339844 C 272.996094 12.402344 272.085938 12.417969 271.109375 12.386719 C 271.078125 12.386719 271.046875 12.394531 271.015625 12.410156 C 271.015625 13.152344 271.003906 14.683594 270.980469 17 C 270.957031 19.3125 270.957031 21.105469 270.972656 22.375 C 270.972656 22.578125 270.960938 23.027344 270.949219 23.722656 C 271.085938 24.453125 271.242188 25.109375 271.410156 25.699219 Z M 271.410156 25.699219 "/>
<path style=" stroke:none;fill-rule:nonzero;fill:rgb(49.019608%,71.372549%,61.176471%);fill-opacity:1;" d="M 283.609375 12.753906 C 283.6875 12.660156 283.765625 12.574219 283.839844 12.496094 C 284.183594 12.15625 284.003906 11.585938 284.339844 11.320312 C 284.5625 11.132812 284.796875 10.972656 285.046875 10.84375 C 285.847656 10.433594 286.761719 10.390625 287.792969 10.714844 C 288.519531 10.894531 289.160156 11.238281 289.714844 11.738281 L 289.820312 11.816406 C 290.0625 12 290.292969 12.195312 290.507812 12.398438 C 290.855469 12.757812 291.144531 13.148438 291.375 13.566406 C 292.1875 14.6875 292.636719 15.820312 292.71875 16.96875 C 292.722656 17 292.730469 17.078125 292.742188 17.210938 C 292.75 17.34375 292.753906 17.449219 292.75 17.527344 C 292.753906 17.898438 292.667969 18.21875 292.484375 18.480469 C 292.449219 18.546875 292.402344 18.605469 292.347656 18.652344 C 292.289062 18.695312 292.246094 18.722656 292.214844 18.726562 L 292.148438 18.761719 C 292.105469 18.78125 292.054688 18.804688 291.996094 18.828125 C 291.910156 18.871094 291.78125 18.921875 291.621094 18.976562 C 291.347656 19.058594 290.96875 19.175781 290.472656 19.324219 L 287.027344 20.300781 L 283.726562 21.253906 L 283.449219 21.300781 C 283.402344 21.984375 283.371094 22.640625 283.355469 23.277344 C 283.601562 24.808594 283.785156 26.207031 284.492188 27.085938 C 285.980469 28.949219 287.316406 28.011719 287.679688 28.121094 L 288.28125 28.328125 C 288.699219 28.332031 289.230469 28.269531 289.875 28.136719 C 290.101562 28.078125 290.316406 28.113281 290.519531 28.246094 C 290.871094 28.167969 291.15625 28.28125 291.371094 28.582031 C 291.496094 28.761719 291.535156 28.964844 291.496094 29.191406 C 291.457031 29.421875 291.351562 29.59375 291.171875 29.714844 L 291.042969 29.816406 C 290.648438 30.089844 290.324219 30.296875 290.074219 30.445312 C 289.828125 30.59375 289.464844 30.730469 288.984375 30.859375 C 288.507812 30.988281 286.847656 31.707031 283.171875 30.015625 C 282.175781 29.554688 281.988281 27.816406 281.800781 25.878906 C 281.308594 24.53125 281.011719 23.105469 280.921875 21.605469 C 280.75 21.621094 280.625 21.636719 280.550781 21.648438 C 280.300781 21.667969 281.367188 21.699219 281.195312 21.542969 C 280.886719 21.589844 280.601562 21.636719 280.339844 21.683594 C 280.121094 21.714844 279.921875 21.660156 279.734375 21.519531 C 279.550781 21.382812 279.441406 21.203125 279.410156 20.984375 C 279.378906 20.769531 279.433594 20.566406 279.574219 20.382812 C 279.710938 20.195312 279.890625 20.089844 280.105469 20.058594 C 280.460938 20.011719 279.890625 19.792969 280.945312 19.605469 C 281.019531 18.660156 281.175781 17.75 281.40625 16.863281 C 281.777344 15.519531 282.359375 14.332031 283.148438 13.3125 C 283.300781 13.109375 283.457031 12.921875 283.609375 12.753906 Z M 286.109375 18.601562 L 286.621094 18.410156 C 287.261719 18.179688 287.800781 17.957031 288.234375 17.738281 C 288.890625 17.382812 289.378906 17.039062 289.707031 16.710938 C 289.742188 16.628906 289.769531 16.484375 289.789062 16.277344 C 289.808594 16.070312 289.804688 15.820312 289.777344 15.527344 C 289.703125 14.679688 289.457031 13.960938 289.03125 13.378906 C 287.976562 12.527344 286.945312 12.3125 285.945312 12.734375 C 285.46875 12.929688 285.089844 13.503906 284.804688 14.46875 C 284.640625 14.976562 284.414062 16.199219 284.074219 17.46875 C 283.9375 17.933594 283.8125 18.515625 283.703125 19.210938 C 284.414062 19.132812 285.519531 18.667969 286.085938 18.605469 Z M 286.109375 18.601562 "/>
<path style=" stroke:none;fill-rule:nonzero;fill:rgb(49.019608%,71.372549%,61.176471%);fill-opacity:1;" d="M 304.621094 13.820312 C 304.496094 13.914062 304.367188 14.054688 304.226562 14.238281 C 303.996094 14.503906 303.648438 14.992188 303.183594 15.703125 C 302.148438 17.300781 301.328125 18.605469 300.726562 19.628906 C 300.011719 21.410156 299.417969 23.042969 298.9375 24.53125 C 298.847656 24.855469 298.628906 25.050781 298.289062 25.113281 C 298.351562 26.476562 298.429688 27.675781 298.523438 28.714844 L 298.542969 28.828125 C 298.652344 29.15625 298.582031 29.441406 298.335938 29.6875 C 298.179688 29.84375 298.003906 29.929688 297.800781 29.945312 C 297.585938 29.960938 297.390625 29.894531 297.210938 29.746094 C 297.03125 29.601562 296.9375 29.417969 296.921875 29.203125 L 296.921875 29.039062 L 296.851562 28.875 C 296.742188 29.09375 296.566406 29.230469 296.320312 29.292969 C 296.101562 29.339844 295.898438 29.304688 295.703125 29.1875 C 295.511719 29.074219 295.390625 28.90625 295.34375 28.691406 C 295.003906 27.265625 294.78125 25.808594 294.671875 24.320312 C 294.566406 22.835938 294.5 21.109375 294.484375 19.140625 L 294.484375 17.632812 C 294.484375 16.734375 294.484375 16.167969 294.476562 15.9375 C 294.464844 15.703125 294.457031 15.222656 294.441406 14.496094 C 294.425781 13.769531 294.40625 13.214844 294.382812 12.835938 C 294.359375 12.457031 294.320312 11.984375 294.265625 11.417969 C 294.210938 10.851562 294.144531 10.328125 294.070312 9.847656 C 294.039062 9.632812 294.09375 9.429688 294.230469 9.246094 C 294.371094 9.058594 294.546875 8.949219 294.765625 8.917969 C 295.042969 8.890625 295.515625 10.289062 295.714844 10.503906 L 295.691406 10.34375 C 295.644531 10.125 295.683594 9.917969 295.808594 9.726562 C 295.929688 9.53125 296.101562 9.417969 296.316406 9.378906 C 296.535156 9.339844 296.738281 9.382812 296.933594 9.507812 C 297.125 9.628906 297.238281 9.800781 297.269531 10.015625 C 297.824219 12.851562 297.957031 15.507812 298.128906 20.605469 L 299.796875 17.097656 C 300.292969 16.105469 300.738281 15.253906 301.140625 14.542969 L 302 12.613281 C 302.417969 11.683594 302.726562 11.066406 302.929688 10.753906 C 303.5625 9.792969 304.296875 9.316406 305.128906 9.316406 C 306.167969 9.316406 307.03125 10.003906 307.726562 11.382812 C 307.867188 11.660156 308 11.960938 308.121094 12.289062 C 308.246094 12.613281 308.375 12.972656 308.503906 13.367188 C 308.636719 13.761719 308.710938 13.96875 308.726562 13.984375 C 309.171875 15.253906 309.535156 16.875 309.816406 18.839844 C 310.09375 20.804688 310.246094 22.6875 310.265625 24.484375 C 310.289062 26.28125 310.222656 27.929688 310.070312 29.433594 C 310.039062 29.664062 309.933594 29.851562 309.757812 29.992188 C 309.578125 30.128906 309.382812 30.183594 309.164062 30.152344 C 309.011719 30.292969 308.824219 30.363281 308.609375 30.363281 C 308.394531 30.363281 308.203125 30.28125 308.042969 30.117188 C 307.878906 29.957031 307.796875 29.765625 307.796875 29.550781 C 307.796875 27.457031 307.566406 24.160156 307.101562 19.652344 C 307.132812 20.335938 307.179688 21.699219 307.242188 23.742188 C 307.316406 26.453125 307.441406 28.457031 307.613281 29.757812 C 307.644531 29.976562 307.589844 30.171875 307.449219 30.351562 C 307.3125 30.527344 307.128906 30.632812 306.90625 30.664062 C 306.679688 30.695312 306.480469 30.640625 306.300781 30.5 C 306.125 30.363281 306.019531 30.175781 305.988281 29.945312 C 305.820312 28.535156 305.695312 26.484375 305.617188 23.789062 C 305.539062 20.9375 305.449219 18.925781 305.339844 17.75 C 305.261719 16.863281 305.152344 16.042969 305.015625 15.285156 C 304.90625 14.773438 304.796875 14.355469 304.691406 14.03125 C 304.660156 13.953125 304.636719 13.882812 304.621094 13.820312 Z M 306.660156 15.238281 C 306.644531 15.191406 306.621094 15.109375 306.59375 14.984375 C 306.699219 15.480469 306.777344 15.917969 306.824219 16.308594 C 306.824219 16.152344 306.769531 15.796875 306.660156 15.238281 Z M 306.660156 15.238281 "/>
<path style=" stroke:none;fill-rule:nonzero;fill:rgb(49.019608%,71.372549%,61.176471%);fill-opacity:1;" d="M 247.917969 22.195312 C 247.898438 21.105469 247.855469 19.8125 247.777344 18.316406 C 247.699219 16.824219 247.535156 15.449219 247.289062 14.191406 C 247.042969 12.9375 247.363281 14.304688 246.945312 13.3125 C 246.328125 11.84375 245.59375 10.804688 244.742188 10.199219 C 244.1875 9.582031 243.5625 9.179688 242.863281 8.992188 C 241.738281 8.683594 240.445312 8.890625 238.992188 9.621094 C 237.679688 10.269531 236.703125 11.078125 236.070312 12.035156 C 235.871094 12.316406 235.863281 12.609375 236.046875 12.917969 L 235.839844 13.21875 C 235.699219 13.390625 235.648438 13.589844 235.6875 13.8125 C 235.726562 14.039062 235.835938 14.214844 236.011719 14.347656 C 236.191406 14.480469 236.390625 14.527344 236.617188 14.488281 C 236.839844 14.449219 237.015625 14.335938 237.136719 14.148438 L 237.253906 14.011719 C 237.5625 14.027344 237.800781 13.902344 237.972656 13.640625 C 238.359375 13.082031 238.859375 12.585938 239.480469 12.152344 C 240.097656 11.71875 240.738281 11.425781 241.40625 11.269531 C 242.8125 11.113281 243.878906 11.886719 244.605469 13.59375 C 245.007812 14.554688 244.636719 13.378906 244.808594 15.054688 C 244.4375 14.742188 244.050781 14.519531 243.648438 14.378906 C 242.953125 14.117188 242.226562 14.140625 241.46875 14.449219 C 240.402344 14.882812 239.320312 15.867188 238.222656 17.398438 C 237.234375 18.792969 236.511719 20.433594 236.066406 22.324219 C 235.617188 24.183594 235.554688 25.957031 235.878906 27.644531 C 236.035156 28.480469 236.375 29.1875 236.902344 29.757812 C 237.425781 30.332031 238.027344 30.71875 238.710938 30.921875 C 239.390625 31.121094 240.109375 31.183594 240.867188 31.105469 C 241.625 31.027344 242.320312 30.796875 242.953125 30.410156 C 243.570312 30.039062 244.160156 29.441406 244.714844 28.621094 C 244.871094 29.441406 245.796875 29.617188 246.308594 30.082031 C 246.355469 30.300781 246.46875 30.324219 246.65625 30.441406 C 246.839844 30.554688 247.035156 30.402344 247.234375 30.402344 L 247.28125 30.402344 C 247.480469 30.402344 247.679688 30.613281 247.871094 30.519531 C 248.066406 30.429688 248.199219 30.359375 248.277344 30.175781 C 248.355469 30.003906 248.371094 29.863281 248.324219 29.675781 C 248.386719 29.566406 248.417969 29.460938 248.417969 29.320312 C 248.417969 28.703125 247.84375 28.027344 247.882812 26.347656 C 247.921875 24.667969 247.929688 23.289062 247.917969 22.195312 Z M 240.359375 27.957031 C 238.054688 27.613281 240.605469 17.046875 243.789062 18.042969 C 245.355469 18.535156 242.203125 28.234375 240.359375 27.957031 Z M 240.359375 27.957031 "/>
<path style=" stroke:none;fill-rule:nonzero;fill:rgb(49.019608%,71.372549%,61.176471%);fill-opacity:1;" d="M 187.789062 29.992188 C 187.742188 29.773438 187.625 29.601562 187.441406 29.480469 C 187.316406 29.046875 187.234375 28.554688 187.195312 28.003906 C 187.160156 27.453125 187.140625 26.972656 187.140625 26.5625 C 187.140625 26.152344 187.15625 25.597656 187.183594 24.890625 C 187.214844 24.1875 187.191406 23.648438 187.191406 23.277344 C 187.222656 20.9375 187.128906 17.257812 187.128906 12.242188 L 187.128906 6.054688 C 187.128906 5.714844 187.152344 5.296875 187.121094 4.800781 C 187.089844 4.304688 187.066406 3.859375 187.003906 3.453125 C 186.957031 3.222656 186.855469 3.039062 186.675781 2.910156 C 186.5 2.777344 186.308594 2.710938 186.089844 2.742188 C 186.011719 2.757812 185.949219 2.796875 185.886719 2.796875 L 185.722656 2.796875 C 185.492188 2.796875 185.3125 2.972656 185.179688 3.148438 C 185.046875 3.328125 184.996094 3.53125 185.027344 3.75 C 185.199219 4.757812 185.300781 9.488281 185.328125 10.683594 C 184.972656 10.28125 184.558594 9.996094 184.078125 9.824219 C 183.242188 9.53125 182.300781 9.625 181.25 10.101562 C 180.445312 10.476562 179.660156 11.023438 178.894531 11.742188 C 178.128906 12.460938 177.523438 13.179688 177.074219 13.890625 C 176.039062 15.578125 175.339844 17.710938 174.976562 20.28125 C 174.613281 22.851562 174.695312 25.097656 175.21875 27.015625 C 175.589844 28.363281 176.175781 29.402344 176.96875 30.128906 C 177.765625 30.859375 178.699219 31.246094 179.765625 31.292969 C 180.675781 31.324219 181.585938 31.097656 182.488281 30.617188 C 183.394531 30.136719 184.21875 29.464844 184.960938 28.597656 C 185.144531 29.371094 185.5 30 186.027344 30.480469 L 186.09375 30.664062 C 186.171875 30.882812 186.3125 31.035156 186.511719 31.128906 C 186.714844 31.222656 186.921875 31.230469 187.140625 31.152344 C 187.355469 31.074219 187.511719 30.933594 187.601562 30.734375 L 187.695312 30.59375 C 187.804688 30.410156 187.835938 30.207031 187.789062 29.992188 Z M 185.074219 17.46875 L 184.136719 23.890625 L 183.140625 25.320312 C 183.140625 25.320312 181.589844 28.617188 179.925781 29.085938 C 178.265625 29.554688 177.058594 26.8125 177.121094 21.773438 C 177.183594 16.738281 180.488281 14.335938 182.511719 13.066406 C 185.191406 11.390625 185.351562 13.648438 185.351562 13.648438 Z M 185.074219 17.46875 "/>
</g>
</svg>
