<?xml version="1.0" encoding="utf-8"?>
<!-- Generator: Adobe Illustrator 15.1.0, SVG Export Plug-In . SVG Version: 6.00 Build 0)  -->
<!DOCTYPE svg PUBLIC "-//W3C//DTD SVG 1.1//EN" "http://www.w3.org/Graphics/SVG/1.1/DTD/svg11.dtd">
<svg version="1.1" id="Layer_1" xmlns="http://www.w3.org/2000/svg" xmlns:xlink="http://www.w3.org/1999/xlink" x="0px" y="0px"
	 width="320px" height="37px" viewBox="0 0 320 37" enable-background="new 0 0 320 37" xml:space="preserve">
<g>
	<path fill="#7DB69C" d="M98.815,173.765c0-12.413,1.276-23.703,3.809-33.865c6.215-25.409,18.627-41.76,37.256-49.104
		c15.52-6.208,33.583-5.077,54.189,3.39c16.643,6.779,32.591,17.206,47.838,31.314c15.238,14.399,26.1,28.936,32.589,43.608
		c0.848,1.978,1.705,5.367,2.542,10.161c0.565,1.987,1.13,4.511,1.695,7.619l3.391,9.313c1.403,3.956,1.121,7.766-0.848,11.43
		l0.42,0.848c0.565,4.236-0.42,7.974-2.963,11.219c-2.533,3.243-5.859,5.157-9.952,5.705c-4.092,0.573-7.765-0.402-10.999-2.954
		c-3.245-2.533-5.159-5.776-5.724-9.733l-0.42-5.924c-2.26-2.261-3.663-4.939-4.228-8.037c-1.423-10.444-4.239-19.76-8.467-27.952
		c-7.345-9.587-17.644-19.193-30.904-28.788c-7.628-3.392-15.666-5.077-24.132-5.077c-16.368,0-30.058,5.923-41.057,17.78
		c0,6.498,0.419,12.906,1.267,19.266c0.847,6.343,2.542,13.616,5.076,21.8l5.504,18.619c1.121,3.673,3.81,11.219,8.047,22.647
		c4.229,11.438,6.771,18.135,7.619,20.123c3.663,9.87,13.188,34.147,28.572,72.816c15.383,38.661,27.724,72.106,37.037,100.313
		c9.314,28.226,15.529,53.907,18.628,77.056c2.543,20.314,0.847,35.269-5.075,44.857c-6.217,9.896-15.395,14.254-27.516,13.124
		c-3.955,1.42-8.33,1.849-13.123,1.274c-5.65-0.564-7.911,3.153-15.867,1.76c-10.735-1.642-20.551-4.475-29.437-8.539
		c-12.849-5.952-24.533-13.243-35.015-21.818c-10.215-8.686-19.483-18.902-27.777-30.64c-8.293-11.758-15.036-22.255-20.231-31.506
		c-5.176-9.231-11.092-20.779-17.727-34.587c-1.667-3.918-1.804-7.746-0.437-11.527c1.366-3.766,3.918-6.518,7.638-8.266
		c3.708-1.76,7.455-1.941,11.227-0.574c3.772,1.365,6.571,3.828,8.42,7.353c4.886,10.564,9.306,19.322,13.253,26.321
		c6.224-0.992,11.227,1.295,14.964,6.854c17.443,25.909,35.041,44.547,52.804,55.984l11.748,6.645
		c0.428-1.33,14.017-11.629,15.429-12.486l-1.275-2.962c-5.642-14.956-11.848-29.5-18.62-43.599
		c-23.431-49.112-41.768-91.591-55.036-127.437c-22.011-59.82-31.752-105.262-29.21-136.311
		C94.586,191.683,96.282,182.515,98.815,173.765z"/>
	<path fill="#7DB69C" d="M350.386,172.07c11.573-17.497,29.355-32.171,53.342-44.019c26.52-13.26,50.097-17.079,70.694-11.438
		c12.703,3.398,24.132,10.727,34.294,22.009c15.512,11.019,28.916,29.929,40.218,56.732c7.609,18.072,13.679,38.523,18.199,61.38
		c4.512,22.866,7.474,47.92,8.887,75.142c1.411,27.249,2.26,50.809,2.542,70.694c0.284,19.903,0.065,45.166-0.629,75.787
		c-0.71,30.621-1.065,51.583-1.065,62.857c0,2.551-0.565,4.802-1.695,6.781c0.848,3.38,0.564,6.614-0.838,9.741
		c-1.423,3.381-3.892,5.924-7.409,7.602c-3.537,1.704-7.136,1.849-10.801,0.436h-0.848c-3.663,0.839-7.191,0.202-10.581-1.913
		c-3.38-2.114-5.504-5.148-6.352-9.095c-9.314-8.476-15.383-20.178-18.2-35.143c-10.161,14.965-20.897,25.827-32.18,32.591
		c-11.574,7.071-24.268,11.291-38.094,12.723c-13.835,1.395-26.958,0.272-39.372-3.399c-12.421-3.674-23.43-10.728-33.017-21.171
		c-9.598-10.427-15.813-23.276-18.629-38.524c-5.923-30.757-4.803-63.065,3.39-96.94c8.175-34.431,21.299-64.342,39.371-89.75
		c20.032-27.933,39.79-45.851,59.265-53.752c13.826-5.651,27.085-6.07,39.791-1.277c7.336,2.535,14.399,6.636,21.169,12.286
		c-3.116-30.483-8.329-54.48-15.666-71.978c-13.271-31.042-32.744-45.149-58.418-42.324c-12.141,2.824-23.859,8.183-35.142,16.077
		c-11.282,7.909-20.461,16.933-27.513,27.094c-3.109,4.803-7.483,7.063-13.125,6.781l-2.113,2.541
		c-2.261,3.391-5.441,5.441-9.524,6.134c-4.091,0.711-7.765-0.145-11.009-2.542c-3.245-2.388-5.222-5.65-5.924-9.734
		c-0.711-4.092,0.209-7.691,2.752-10.79l3.809-5.515C346.576,182.515,346.713,177.155,350.386,172.07z M429.975,532.329
		c-4.238,0.565-8.466,0.565-12.695,0c6.197,2.544,12.831,3.955,19.895,4.239C434.349,535.719,431.943,534.316,429.975,532.329z
		 M496.44,340.989c-1.423,0.273-3.245,1.122-5.506,2.524c-3.955,2.554-7.983,6.363-12.066,11.447
		c-4.092,5.075-7.127,10.024-9.095,14.8c-7.628,17.791-13.489,37.121-17.58,58.018c-4.094,20.88-5.433,40.21-4.021,57.981
		c11.576-13.816,22.156-33.156,31.752-57.981c10.444-27.104,16.085-51.381,16.933-72.817
		C496.858,349.877,496.712,345.219,496.44,340.989z M480.773,491.683c-1.694,2.552-3.389,4.94-5.075,7.2
		C477.384,496.923,479.079,494.508,480.773,491.683z M499.821,296.544h0.429c2.815,1.12,5.504,2.523,8.037,4.219
		c-2.533-2.815-4.939-5.213-7.2-7.19C500.522,294.693,500.104,295.695,499.821,296.544z M515.915,487.454
		c1.122,0.291,2.107,0.574,2.963,0.856c0-2.551,0.136-5.514,0.418-8.895C518.167,482.241,517.036,484.92,515.915,487.454z
		 M523.525,324.467l1.276,1.705c0-4.238-0.146-8.33-0.429-12.285c-2.26-0.273-4.375-0.994-6.351-2.105
		c1.694,2.824,3.243,6.061,4.665,9.732C522.96,322.353,523.243,323.355,523.525,324.467z"/>
	<path fill="#7DB69C" d="M683.333,500.578c-3.118-24.826-3.673-49.806-1.705-74.923c-3.098-21.735-6.489-42.332-10.152-61.818
		c-14.682-75.916-32.317-128.409-52.922-157.481c-2.535-3.099-3.455-6.69-2.752-10.781c0.71-4.094,2.752-7.264,6.143-9.542
		c1.421-1.113,2.961-1.95,4.657-2.524c0.847-4.794,3.391-8.322,7.619-10.6c3.107-1.678,6.289-2.314,9.533-1.886
		c3.235,0.41,6.133,1.886,8.667,4.438c0.282-0.564,0.848-1.12,1.695-1.695c3.107-2.534,6.707-3.519,10.8-2.962
		c4.081,0.574,7.398,2.542,9.942,5.924c15.521,19.769,27.522,51.101,35.981,93.988c4.238-12.14,8.894-23.004,13.971-32.589
		c5.65-11.01,11.721-19.485,18.209-25.41c9.587-9.313,19.894-13.396,30.904-12.283c18.901,1.984,33.292,14.973,43.18,38.949
		c3.664,9.041,7.619,24.699,11.848,46.989l5.932,30.896c5.077-23.695,12.277-42.596,21.591-56.714
		c13.543-21.172,31.322-31.889,53.333-32.18c19.758-0.273,34.996,11.3,45.722,34.722c5.651,11.848,10.161,27.925,13.542,48.247
		c4.803,30.221,8.613,67.879,11.438,113.036c0.274,3.674,1.195,19.549,2.752,47.618c1.55,28.089,2.89,49.469,4.02,64.142
		c0.273,4.229-0.92,7.901-3.6,11c-2.689,3.107-5.997,4.803-9.942,5.077c-3.965,0.292-7.492-0.839-10.59-3.381
		c-2.533,2.259-5.359,3.525-8.466,3.817c-4.229,0.274-7.901-0.919-11.001-3.599c-3.116-2.689-4.802-6.007-5.085-9.961
		c-0.282-5.624-1.266-21.364-2.961-47.191c-1.694-25.827-3.036-43.735-4.019-53.76c-0.993-10.025-3.18-24.124-6.562-42.333
		c-3.391-18.209-7.619-34.222-12.705-48.047c-5.085-14.399-8.885-23.851-11.428-28.371c-2.825-5.641-5.505-9.597-8.038-11.847
		c-1.139,1.685-2.269,3.525-3.39,5.504c-3.672,10.143-7.054,22.428-10.161,36.829c-5.369,26.521-9.734,62.081-13.124,106.673
		c0,0.574-0.146,3.108-0.419,7.619l-0.849,16.942c-0.573,7.053-0.993,13.533-1.275,19.467c-0.838,11.866-1.55,21.172-2.115,27.941
		c-0.282,4.229-0.565,7.619-0.848,10.171c-0.282,1.403-0.565,2.671-0.847,3.802c0,0.846-0.146,1.548-0.42,2.123
		c-0.846,2.251-1.976,4.22-3.39,5.924c-5.075,5.922-11.009,7.044-17.78,3.381c-1.687-0.849-3.107-1.979-4.229-3.381
		c-0.848-0.575-1.559-1.422-2.124-2.542c-0.284-0.858-0.703-1.833-1.267-2.964c-2.543-1.986-3.81-3.517-3.81-4.665l-0.848-2.535
		c0-0.564-0.145-1.129-0.419-1.694v-1.266v-1.269v-1.695c-5.924-0.854-10.161-4.236-12.704-10.159
		c-0.848-2.544-1.414-6.079-1.686-10.583v-5.504v-4.229c0-1.138-0.154-2.113-0.429-2.97c-2.542-17.489-4.229-32.736-5.084-45.715
		c-1.687-25.682-4.229-50.653-7.61-74.94c-2.269-16.085-4.658-29.481-7.2-40.219c-2.826-11.273-5.368-18.618-7.627-21.998
		c-3.948-5.925-8.75-8.322-14.392-7.2c-7.335,1.676-15.802,7.618-25.398,17.78c-5.077,5.066-9.88,10.999-14.392,17.78l-5.085,15.657
		c-0.282,5.076-0.419,10.453-0.419,16.076l2.124,36.419c0.839,14.681,1.541,38.103,2.115,70.273l2.533,10.581
		c1.132,3.964,0.429,7.764-2.113,11.438v17.771v9.323v0.838v0.42v0.42v0.436v1.269c-0.284,0.564-0.42,1.121-0.42,1.695
		c0,1.13-0.849,2.687-2.543,4.647c-2.26,5.65-6.205,8.885-11.856,9.74c-4.228,0.559-7.974-0.417-11.209-2.959
		c-3.254-2.545-5.159-5.779-5.714-9.744l-2.971-25.408C687.56,510.894,684.17,506.792,683.333,500.578z M756.561,242.344
		c10.725-4.511,21.023-2.815,30.912,5.086l0.839,0.848c-4.804-11.574-10.728-17.625-17.782-18.199
		c-1.695-0.282-4.091,0.975-7.2,3.801C761.071,236.138,758.82,238.963,756.561,242.344z M758.255,280.867
		c1.412-0.546,2.816-0.984,4.237-1.266c3.947-0.85,7.893-1.268,11.856-1.268c-1.985-3.955-3.819-6.636-5.514-8.037l-0.838-0.438
		c-1.977,0.856-4.667,3.536-8.047,8.039L758.255,280.867z M902.613,258.851c4.794,0,9.587,1.001,14.391,2.97l5.084,2.552
		c-3.673-4.248-7.773-6.362-12.284-6.362C907.261,258.01,904.864,258.294,902.613,258.851z"/>
	<path fill="#7DB69C" d="M1253.668,266.049c-0.847-1.677-1.411-3.527-1.695-5.495l-3.39-18.21l-3.38-10.58
		c-6.773-20.597-13.27-37.686-19.477-51.219l-4.657-10.161c-15.52-19.749-33.018-28.499-52.485-26.247
		c-10.734,1.13-20.897,5.787-30.484,13.972l-1.696,2.533c-5.923,13.269-11.154,32.188-15.665,56.723
		c-5.359,32.736-9.033,72.262-11,118.55c-1.697,44.3-1.56,87.053,0.418,128.255c16.652-4.221,29.92-8.32,39.799-12.268
		c5.642-2.25,10.718-1.548,15.238,2.125l1.686-0.856c3.956-1.695,7.838-1.841,11.648-0.421c3.809,1.404,6.562,3.947,8.248,7.601
		c1.977,4.538,1.84,8.904-0.42,13.125c0.848,3.681,0.355,7.134-1.477,10.379c-1.84,3.255-4.592,5.441-8.257,6.563
		c-14.673,4.804-28.791,9.177-42.332,13.125c-0.283,0.282-0.712,0.427-1.268,0.427c-6.771,2.824-13.269,5.359-19.476,7.619
		c1.403,12.432,2.962,85.157,4.657,92.484c1.695,6.771-0.429,11.995-6.353,15.666c-0.565,6.48-3.81,10.854-9.742,13.124
		c-3.946,1.403-7.756,1.194-11.419-0.638c-3.672-1.831-6.216-4.584-7.628-8.257c-1.686-5.076-3.381-10.727-5.076-16.925
		c-1.978-2.542-2.961-68.352-2.961-71.751v-3.8l-1.695-8.477c-4.239,0.849-8.33,1.56-12.277,2.115
		c-4.237,0.565-8.046-0.556-11.438-3.38l-0.837,0.418c-3.673,0.847-7.201,0.428-10.582-1.276c-3.39,1.14-6.707,1.067-9.952-0.209
		c-3.245-1.275-5.714-3.446-7.409-6.562c-2.252-3.382-2.817-7.044-1.695-11.001c1.129-3.946,3.536-6.916,7.199-8.886
		c11.292-6.489,24.269-12.284,38.942-17.361c-3.945-29.072-7.053-59.693-9.313-91.865c-5.359-84.089-2.68-142.664,8.047-175.682
		c4.512-14.39,11.565-28.216,21.162-41.484c9.596-13.544,20.46-25.253,32.599-35.142c1.13-1.112,2.124-2.261,2.963-3.381
		c5.932-7.328,13.688-12.561,23.283-15.666c11.284-6.199,23.56-9.589,36.83-10.163c8.465-0.273,14.963,0.145,19.475,1.275
		c6.489,1.687,12.977,5.651,19.476,11.849c2.817,2.553,5.504,5.377,8.048,8.476c1.12,0.847,2.25,1.549,3.38,2.123
		c15.238,9.587,28.507,22.511,39.79,38.732s19.968,33.931,26.038,53.114c6.07,19.192,10.58,37.402,13.543,54.617
		c2.97,17.215,4.875,34.441,5.722,51.639c0.274,4.237-0.994,7.837-3.81,10.799c-2.825,2.963-6.288,4.594-10.372,4.875
		c-4.1,0.273-7.628-0.993-10.589-3.818c-2.963-2.807-4.585-6.205-4.867-10.161v-2.104c-0.849,0.273-1.695,0.41-2.543,0.41
		c-4.229,0.856-8.039,0.154-11.429-2.125c-3.38-2.25-5.359-5.349-5.924-9.304l-1.695-7.619
		C1261.142,295.55,1257.332,282.144,1253.668,266.049z"/>
	<path fill="#7DB69C" d="M1427.766,185.831c6.499-2.824,13.551-3.536,21.17-2.114c17.206,2.825,33.574,15.375,49.104,37.666
		c7.336,10.736,16.223,26.676,26.667,47.838c12.705,26.529,20.889,55.037,24.561,85.504c2.533,16.385,2.752,39.315,0.63,68.808
		c-2.115,29.491-6.981,56.503-14.601,81.073c-3.955,13.524-8.895,26.102-14.818,37.667c-5.924,11.574-13.06,22.365-21.381,32.391
		c-8.33,10.024-18.481,17.834-30.475,23.485c-12.003,5.649-25.054,8.467-39.162,8.467c-30.759,0-53.908-17.217-69.427-51.639
		c-11.292-25.673-18.064-60.67-20.316-104.989c-1.694-34.421-0.71-70.128,2.963-107.11c3.663-36.965,7.892-65.317,12.695-85.085
		c2.543-10.443,6.781-21.452,12.705-33.028c5.923-11.556,12.696-21.015,20.323-28.361c11.282-10.436,22.994-14.39,35.133-11.847
		C1424.949,185.121,1426.352,185.559,1427.766,185.831z M1372.309,483.846v-3.811c0-34.996,0.146-60.531,0.429-76.617
		c0.273-16.085,1.758-38.522,4.438-67.304c2.679-28.799,6.699-54.48,12.066-77.057c0.284-0.846,0.638-2.458,1.058-4.866
		c0.429-2.387,0.984-4.857,1.695-7.399c0.702-2.543,1.341-5.085,1.906-7.628c-4.512,8.749-7.766,17.224-9.733,25.407
		c-4.52,18.611-8.613,45.569-12.277,80.847c-3.389,35.008-4.236,69.438-2.541,103.295
		C1369.913,461.981,1370.896,473.693,1372.309,483.846z M1451.897,505.864c-5.933,4.521-12.139,5.085-18.627,1.695
		c-3.108-1.695-5.788-4.084-8.048-7.201c-0.838-1.12-2.815-4.374-5.924-9.731c-1.411-2.545-2.678-6.489-3.809-11.849
		c-1.13-3.674-2.114-8.193-2.961-13.543c-1.979-9.041-3.244-15.821-3.81-20.323c-3.673-29.346-4.939-60.815-3.81-94.407
		c-1.978,26.53-2.962,69.709-2.962,129.53c0,18.921,1.549,34.725,4.647,47.419c1.979,8.477,4.52,14.672,7.629,18.637
		c1.685,2.534,3.809,3.663,6.352,3.373c8.741-0.557,17.07-9.733,24.972-27.515C1447.806,517.155,1449.92,511.806,1451.897,505.864z
		 M1475.603,241.288c2.542,3.671,5.086,8.32,7.619,13.97c8.466,17.772,13.971,33.866,16.515,48.248
		c2.542,10.454,3.39,30.84,2.542,61.18c-0.847,30.349-3.391,59.475-7.628,87.426c-5.358,34.148-12.695,61.518-22.009,82.122
		c-10.444,23.141-23.568,37.394-39.371,42.752c33.583-2.26,58.135-29.208,73.656-80.854c6.78-22.584,11.146-47.418,13.123-74.515
		c2.26-27.357,2.124-48.52-0.419-63.492c-3.107-26.822-10.444-52.212-22.018-76.2
		C1488.581,263.024,1481.244,249.463,1475.603,241.288z M1437.927,437.713c1.968-15.803,4.229-35.569,6.771-59.267
		c1.968-14.117,2.752-28.005,2.333-41.694c-0.428-13.688-2.615-26.611-6.562-38.74c-0.575-1.704-0.847-3.383-0.847-5.079
		l-0.848,6.345C1433.125,346.978,1432.841,393.12,1437.927,437.713z M1440.04,289.544c0.284-1.111,0.703-2.115,1.277-2.962
		c1.696-3.673,4.511-6.061,8.466-7.2c4.229-1.412,8.321-0.975,12.276,1.277c-1.695-4.512-3.536-8.75-5.504-12.705
		c-3.117-6.772-6.216-11.994-9.314-15.666c-1.129,3.955-2.397,9.039-3.809,15.247
		C1442.302,274.305,1441.171,281.634,1440.04,289.544z M1457.402,222.65c3.382,1.713,6.489,4.102,9.314,7.199
		c1.686,1.412,3.235,3.117,4.648,5.086c-4.803-6.498-9.598-11.564-14.382-15.248C1457.257,220.545,1457.402,221.538,1457.402,222.65
		z"/>
	<path fill="#7DB69C" d="M1774.619,546.265c-3.354,1.603-6.816,1.923-10.389,0.955c-3.573-0.982-6.398-2.96-8.478-5.996
		c-0.956-1.384-4.464-5.485-10.498-12.304c-8.667-10.134-14.482-17.105-17.435-20.887c-7.474-8.914-13.123-16.159-16.961-21.736
		c-2.715-3.965-4.611-7.455-5.659-10.48c-0.893-1.804-18.327-20.387-19.739-20.952l-9.734,4.229c-0.282,0-0.848,0.42-1.695,1.257
		c-2.543,1.713-4.239,2.698-5.086,2.98c-2.26,1.413-4.512,2.397-6.771,2.963c1.13,19.467,1.695,37.82,1.695,55.027
		c0,4.52-1.695,8.185-5.075,11.009l-0.849,11.438c-0.574,3.946-2.405,7.189-5.505,9.725c-3.107,2.543-6.77,3.672-10.999,3.399
		c-3.391-0.574-6.289-2.052-8.686-4.457c-2.405-2.404-3.882-5.295-4.438-8.667c-1.705-2.551-2.544-5.368-2.544-8.476
		c0-27.095-2.688-72.517-8.046-136.311c-1.695-20.323-3.108-47.556-4.238-81.713c-3.38-63.494-5.495-99.466-6.344-107.941
		c-2.25-22.574-5.504-43.317-9.741-62.228c-0.848-3.1-0.557-6.061,0.847-8.887v-0.428c-0.847-3.946-0.136-7.618,2.114-11.008
		c2.27-3.383,5.514-5.359,9.743-5.924c3.098-0.566,6.069-0.275,8.885,0.837c2.259-1.677,4.657-2.808,7.199-3.382
		c2.26-0.28,4.511-0.136,6.771,0.431c2.261-1.696,4.657-3.101,7.2-4.248c8.185-4.502,49.085-36.218,63.476-36.791h0.428
		c2.534-0.848,4.93-1.55,7.191-2.124c16.941-4.229,31.614-2.679,44.027,4.646c14.108,7.912,23.422,22.174,27.943,42.771
		c3.663,16.65,5.64,34.294,5.923,52.913c0.565,18.628-0.355,37.258-2.742,55.875c-2.407,18.629-5.441,36.347-9.105,53.133
		c-3.672,16.796-13.47,39.243-20.788,55.119c-6.625,14.354-31.833,52.458-38.888,69.947l44.028,65.061l3.344,3.355
		c13.215,10.78,25.063,21.817,35.562,33.1c2.698,2.934,3.964,6.525,3.782,10.754c-0.173,4.238-1.732,7.7-4.685,10.398l-1.731,1.194
		c0.3,4.922-1.458,8.867-5.241,11.811c-2.634,2.16-5.642,3.271-9.004,3.354C1780.323,549.089,1777.298,548.179,1774.619,546.265z
		 M1662.175,146.259c-5.532,3.3-9.879,8.177-14.39,12.688c8.465,60.97,12.977,133.076,13.552,216.338l4.228-12.723
		c1.696-5.35,35.251-45.541,41.467-62.19l16.843-37.548c3.663-11.019,5.941-28.279,10.043-43.955
		c4.083-15.647,6.698-29.41,7.828-41.257c2.251-25.127-1.722-50.763-11.601-59.804
		C1722.252,110.753,1679.31,136.017,1662.175,146.259z"/>
	<path fill="#7DB69C" d="M2033.763,40.47c1.122,7.336,2.489,102.254,3.063,111.277c0.574,9.039,0.847,16.658,0.847,22.874v24.534
		v22.028c0.848,91.437,0.983,158.476,0.427,201.071c0,6.782-0.299,16.589-0.847,29.428c-0.565,12.843-0.848,23.004-0.848,30.477
		c0,7.483,0.356,16.25,1.058,26.246c0.702,10.026,2.187,18.994,4.438,26.886c3.398,2.252,5.505,5.368,6.361,9.324
		c0.839,3.937,0.274,7.601-1.695,11l-1.694,2.543c-1.695,3.653-4.521,6.206-8.467,7.617c-3.955,1.413-7.755,1.269-11.428-0.436
		c-3.672-1.678-6.224-4.503-7.619-8.449l-1.267-3.399c-9.606-8.749-16.094-20.168-19.485-34.285
		c-13.542,15.813-28.57,28.079-45.075,36.828c-16.514,8.739-33.1,12.84-49.742,12.275c-19.475-0.847-36.49-7.901-51.016-21.171
		c-14.528-13.259-25.191-32.172-31.963-56.723c-9.587-34.986-11.072-75.916-4.438-122.77c6.625-46.843,19.402-85.649,38.305-116.397
		c8.184-12.997,19.256-26.047,33.236-39.17c13.963-13.124,28.289-23.067,42.962-29.847c19.193-8.75,36.408-10.437,51.656-5.077
		c8.748,3.108,16.35,8.33,22.847,15.675c-0.574-21.744-2.916-128.501-6.015-146.855c-0.574-3.954,0.337-7.556,2.743-10.79
		c2.397-3.245,5.705-5.295,9.951-6.152h2.953c1.131-0.555,2.396-0.975,3.819-1.268c3.956-0.555,7.555,0.355,10.791,2.753
		C2030.866,32.924,2032.916,36.231,2033.763,40.47z M1844.21,436.656c-1.413-3.1-2.679-6.208-3.809-9.313
		c0,9.313,0.565,18.353,1.695,27.084C1842.369,448.503,1843.079,442.58,1844.21,436.656z M1873.419,369.761
		c-3.109-8.729-4.939-20.022-5.504-33.847v-2.552c-3.108,12.977-4.512,27.805-4.229,44.446v7.199
		C1866.501,379.933,1869.746,374.847,1873.419,369.761z M1982.646,334.638c0.555,1.677,0.838,3.664,0.838,5.924
		c0.848,6.217,0.985,13.406,0.429,21.6c-0.848,18.902-4.384,37.109-10.581,54.599c-7.628,22.292-17.927,38.814-30.905,49.533
		c-17.78,14.381-38.103,17.206-60.959,8.458c-2.826-1.112-6.079-3.382-9.744-6.763c0.285,11.009,2.262,22.291,5.934,33.855
		c5.36,18.073,14.392,26.821,27.086,26.248c6.206-0.273,12.914-2.524,20.113-6.771c7.2-4.229,13.606-10.153,19.257-17.779
		c5.084-6.481,14.964-22.021,29.637-46.563c1.969-3.39,4.931-5.649,8.895-6.771c3.938-1.13,7.747-0.556,11.428,1.694
		c0.555,0.273,1.13,0.702,1.695,1.269c0.273-4.229,0.41-8.049,0.41-11.43c0.283-9.313,0.428-22.438,0.428-39.369
		c0-16.934,0.146-32.392,0.429-46.371c0.283-13.963,0.848-27.158,1.695-39.571c1.96-28.789,3.098-46.706,3.381-53.77
		c-1.13,16.386-5.076,34.158-11.856,53.351C1988.004,322.217,1985.461,328.44,1982.646,334.638z M1892.048,395.171
		c-7.346,11.848-12.696,23.703-16.086,35.561l6.771,6.771l7.619,7.619c0.847,0.849,1.695,1.559,2.542,2.105
		c11.848,4.248,22.146,2.98,30.903-3.8c8.74-7.337,15.94-19.467,21.59-36.408c2.816-7.893,5.077-16.36,6.771-25.391
		c-12.977,12.703-26.247,19.047-39.79,19.047C1904.743,400.675,1897.971,398.834,1892.048,395.171z M1960.208,311.781l2.113-5.934
		c6.764-18.902,10.298-35.697,10.581-50.378c0-3.109-0.082-5.852-0.208-8.259c-0.146-2.396-0.429-4.228-0.848-5.496
		c-0.418-1.274-0.773-2.251-1.057-2.971c-0.284-0.692-0.574-1.192-0.848-1.477c-3.108-1.694-6.07-2.605-8.885-2.752
		c-2.826-0.127-5.861,0.42-9.105,1.695c-3.244,1.276-6.288,2.752-9.104,4.438c-2.824,1.694-6.489,4.237-11,7.628
		c-9.041,6.771-16.806,12.978-23.285,18.619c-0.848,1.412-1.559,2.826-2.124,4.237c-7.054,14.118-10.016,35.415-8.886,63.923
		c0,1.695,0.137,3.382,0.419,5.077c6.771-7.044,13.552-12.843,20.323-17.344C1933.532,312.054,1947.502,308.392,1960.208,311.781z
		 M1945.808,340.989c-3.108,1.122-6.625,3.1-10.581,5.924c-7.902,5.35-16.231,13.261-24.98,23.696
		c0.566,0.3,1.276,0.429,2.123,0.429c7.336,0,15.511-5.778,24.552-17.354C1940.021,350.013,1942.983,345.784,1945.808,340.989z
		 M1955.551,205.097c6.77-0.565,13.396,0.284,19.895,2.535c-1.414-1.121-2.961-1.97-4.657-2.535
		c-4.521-1.41-9.733-1.55-15.667-0.419C1955.404,204.678,1955.551,204.806,1955.551,205.097z M1989.407,488.721
		c1.422,0,2.826,0.146,4.247,0.429v-7.629L1989.407,488.721z M2001.693,241.497c0.838,4.229,1.111,8.895,0.838,13.973
		c0.273-5.078,0.438-9.589,0.438-13.543C2002.676,241.651,2002.249,241.497,2001.693,241.497z"/>
	<path fill="#7DB69C" d="M2376.939,112.251c3.107,9.306,10.088,49.723,12.357,61.279c2.252,11.592,3.801,21.473,4.656,29.646
		l3.391,31.753c1.404,12.986,2.534,22.592,3.382,28.789c7.619,60.952,11.993,96.367,13.123,106.246
		c18.62-19.739,84.976-79.351,126.178-113.51c3.107-2.542,6.708-3.653,10.799-3.381c4.094,0.273,7.411,2.115,9.953,5.505
		c3.382,3.955,4.228,8.612,2.533,13.964c3.391,5.367,3.099,10.735-0.847,16.083l-7.619,9.743c1.968,5.924,0.711,11.01-3.81,15.238
		c-9.597,9.313-22.292,20.897-38.095,34.713l-43.208,39.855l-22.438,24.131l10.579,5.496c9.033,3.964,17.354,8.048,24.973,12.275
		c9.588,3.116,17.635,6.635,24.132,10.59c6.489,3.682,16.087,10.008,28.791,19.048l8.886,6.343l22.019,10.163
		c6.48,2.552,9.588,7.199,9.305,13.979l7.628,5.495c2.533,1.987,4.365,4.52,5.496,7.628l1.694,0.839
		c5.077,3.108,7.483,7.628,7.2,13.552c1.12,4.229,0.629,8.037-1.485,11.428c-2.114,3.392-5.222,5.578-9.306,6.562
		c-4.1,0.985-7.837,0.492-11.228-1.476l-5.924-3.818c-4.804,3.107-9.733,3.382-14.818,0.855
		c-9.032-4.803-18.628-10.38-28.781-16.723c-10.161-6.359-18.2-11.5-24.132-15.456l-27.516-19.466l-24.132-16.934
		c-4.52-3.392-6.635-7.911-6.353-13.563c-5.924-1.676-11.429-3.38-16.505-5.075c-2.26-0.847-4.228-2.251-5.933-4.238l-0.838,1.276
		c2.543,28.789,4.083,55.456,4.648,80.018c0,3.938-1.34,7.473-4.02,10.571c-2.68,3.117-6.143,4.667-10.371,4.667l2.961,10.571
		c1.413,3.954,1.131,7.692-0.847,11.228c-1.97,3.518-4.94,5.851-8.886,6.98c-1.131,0.565-2.26,0.84-3.382,0.84
		c-1.986,3.115-4.665,5.222-8.056,6.36c-3.946,1.413-7.756,1.193-11.42-0.639c-3.672-1.83-6.079-4.729-7.199-8.675
		c-2.543-7.619-4.657-15.248-6.352-22.856c-1.695-7.619-3.036-16.442-4.02-26.466c-0.993-10.008-1.695-17.481-2.115-22.43
		c-0.428-4.948-0.92-13.551-1.484-25.828c-0.565-12.275-0.984-19.529-1.268-21.799l-1.267-24.553
		c-2.543-19.475-5.085-42.332-7.629-68.579c-0.846-7.91-2.396-24.343-4.655-49.322c-2.262-24.973-4.021-43.317-5.296-55.028
		c-1.267-11.711-3.173-27.23-5.714-46.571c-2.533-19.32-9.515-66.874-12.34-82.677c-0.857-3.947-0.146-7.629,2.114-11.011
		c2.261-3.391,5.505-5.357,9.734-5.923c3.39-0.838,6.634-0.355,9.732,1.476c3.106,1.843,5.358,4.311,6.78,7.41
		c1.695-3.1,4.229-5.076,7.619-5.924c3.945-1.413,7.755-1.13,11.428,0.848C2373.412,105.752,2375.818,108.578,2376.939,112.251z"/>
	<path fill="#7DB69C" d="M2712.838,144.896c5.359-5.359,12.276-10.719,20.742-16.085c8.467-5.35,16.65-9.159,24.553-11.438
		c1.694-0.272,3.244-0.547,4.666-0.838c1.121-0.848,2.105-1.549,2.953-2.123c8.466-5.076,16.231-5.223,23.294-0.411
		c6.196,4.229,9.159,10.572,8.876,19.048c3.109,6.762,4.247,15.385,3.391,25.81c-1.131,15.247-11.282,36.982-30.477,65.198
		c-1.42,2.27-4.803,7.346-10.159,15.247l-11.001,16.504c-1.979,2.826-4.384,6.781-7.201,11.849
		c-2.824,5.086-5.075,9.469-6.779,13.123c-1.121,3.117-3.109,5.516-5.924,7.199c-1.412,3.665-3.811,6.363-7.2,8.039
		c-3.382,1.705-6.981,2.061-10.79,1.076c-3.811-0.994-6.707-3.19-8.677-6.562c-3.672,1.686-7.345,1.831-11.009,0.409
		c-3.664-1.403-6.354-3.945-8.039-7.609c-0.29-1.131-2.404-6.07-6.352-14.818c-2.27-5.369-4.375-9.597-6.352-12.706
		c-2.26-4.236-4.804-8.31-7.619-12.283c-2.824-3.938-6.498-8.595-11.01-13.964l-10.152-13.122
		c-13.553-18.055-21.453-35.407-23.713-52.058c-2.534-19.484-1.833-34.431,2.113-44.893c2.261-6.762,5.86-11.976,10.801-15.648
		c4.93-3.672,10.799-5.514,17.57-5.514c9.314,0.291,19.475,4.666,30.477,13.123c9.313,7.346,18.346,16.788,27.094,28.361
		c1.97,2.544,2.962,5.523,2.962,8.896C2710.723,147.301,2711.708,146.035,2712.838,144.896z M2694.211,180.457
		c-11.574-16.935-21.445-29.637-29.629-38.104c-2.27-2.544-4.375-4.512-6.353-5.925c0.848,1.979,2.114,4.529,3.81,7.629
		c3.39,6.205,8.749,14.244,16.094,24.123l12.695,16.086c6.197,7.91,11.146,14.473,14.811,19.685
		c3.672,5.231,6.352,9.524,8.047,12.923c1.977,3.938,3.81,8.039,5.504,12.268c5.087-11.866,11.146-24.551,18.21-38.113
		c1.403-3.099,7.189-12.403,17.353-27.924l6.353-11.428c-11.302,7.345-25.126,19.193-41.495,35.552
		c-3.107,2.824-6.635,4.237-10.58,4.237c-3.955,0-7.475-1.413-10.582-4.237c-1.694-1.687-2.825-3.673-3.389-5.925L2694.211,180.457z
		 M2736.971,368.835c2.252,19.202,2.963,45.294,2.114,78.321c-0.848,37.821-0.848,62.938,0,75.361
		c0.282,3.099-0.565,6.06-2.532,8.885c-0.857,4.784-3.537,8.312-8.048,10.572v1.712v1.258c0,3.955-1.485,7.41-4.448,10.381
		c-2.962,2.963-6.424,4.438-10.371,4.438c-6.771,0-11.429-3.253-13.971-9.733c-1.979-1.694-3.527-3.819-4.656-6.344
		c-1.697-4.246-3.245-8.749-4.658-13.56c-1.413-1.969-2.396-4.238-2.962-6.763l-0.427-5.086
		c-4.512-16.084-8.039-32.736-10.583-49.951c-2.542-17.216-4.857-37.612-6.98-61.18c-2.122-23.558-3.745-39.717-4.866-48.465
		c-0.574-3.947,0.428-7.547,2.961-10.811c2.535-3.225,5.925-5.129,10.162-5.705c7.045-0.855,12.131,1.969,15.238,8.468
		c2.26-5.351,6.352-8.319,12.275-8.887c4.229-0.273,7.902,0.912,11.01,3.6c3.099,2.689,4.793,5.989,5.076,9.944v0.419
		c3.956-0.273,7.409,0.848,10.371,3.398C2734.638,361.636,2736.396,364.897,2736.971,368.835z"/>
	<path fill="#7DB69C" d="M3044.407,289.783c-2.27,1.677-4.665,4.22-7.199,7.601c-4.237,4.813-10.589,13.697-19.048,26.685
		c-18.918,29.072-33.875,52.904-44.874,71.542c-12.987,32.443-23.859,62.227-32.601,89.313c-1.694,5.924-5.65,9.459-11.855,10.589
		c1.131,24.844,2.542,46.716,4.236,65.618l0.43,2.114c1.969,5.933,0.692,11.154-3.819,15.656c-2.824,2.827-6.069,4.375-9.733,4.667
		c-3.955,0.273-7.555-0.93-10.799-3.601c-3.244-2.679-5.012-5.996-5.285-9.942v-2.971l-1.277-2.952
		c-1.977,3.936-5.221,6.488-9.732,7.602c-3.955,0.846-7.692,0.218-11.219-1.897c-3.535-2.114-5.715-5.14-6.563-9.104
		c-6.206-25.966-10.308-52.495-12.275-79.59c-1.968-27.085-3.107-58.544-3.391-94.397v-27.514c0-16.36-0.064-26.676-0.209-30.906
		c-0.138-4.228-0.347-12.977-0.629-26.246c-0.283-13.261-0.639-23.35-1.066-30.275c-0.419-6.898-1.12-15.512-2.114-25.809
		c-0.984-10.299-2.179-19.832-3.6-28.58c-0.558-3.957,0.427-7.619,2.972-11.011c2.532-3.381,5.777-5.358,9.732-5.932
		c5.076-0.557,9.45,1.139,13.124,5.076l-0.429-2.954c-0.848-3.945-0.146-7.682,2.124-11.209c2.25-3.536,5.349-5.65,9.313-6.36
		c3.945-0.712,7.683,0.071,11.209,2.323c3.527,2.27,5.578,5.377,6.144,9.323c10.152,51.646,16.786,123.89,19.894,216.74
		l30.486-63.924c9.021-18.055,17.205-33.583,24.552-46.552l15.657-35.15c7.619-16.942,13.269-28.218,16.934-33.868
		c11.573-17.498,24.979-26.245,40.217-26.245c18.91,0,34.713,12.566,47.417,37.684c2.544,5.086,4.932,10.572,7.191,16.505
		c2.261,5.925,4.584,12.486,6.989,19.685c2.398,7.19,3.737,10.938,4.021,11.219c8.184,23.141,14.818,52.642,19.894,88.477
		c5.086,35.833,7.838,70.129,8.257,102.872c0.419,32.737-0.783,62.794-3.6,90.17c-0.564,4.229-2.471,7.619-5.715,10.152
		c-3.244,2.545-6.844,3.519-10.789,2.972c-2.826,2.535-6.217,3.809-10.162,3.809c-3.955,0-7.41-1.475-10.371-4.445
		c-2.962-2.954-4.447-6.418-4.447-10.372c0-38.112-4.229-98.208-12.696-180.349c0.556,12.43,1.404,37.265,2.534,74.512
		c1.414,49.387,3.664,85.932,6.771,109.646c0.564,3.945-0.418,7.546-2.963,10.79c-2.533,3.243-5.859,5.148-9.951,5.723
		c-4.084,0.558-7.756-0.417-11-2.97c-3.244-2.535-5.159-5.924-5.715-10.153c-3.107-25.683-5.367-63.084-6.771-112.179
		c-1.423-51.921-3.108-88.63-5.076-110.064c-1.422-16.095-3.392-31.06-5.934-44.895c-1.978-9.305-3.954-16.924-5.923-22.847
		C3045.102,292.171,3044.682,290.895,3044.407,289.783z M3081.656,315.593c-0.283-0.838-0.703-2.387-1.268-4.647
		c1.969,9.022,3.391,17.061,4.229,24.132C3084.617,332.253,3083.624,325.754,3081.656,315.593z"/>
	<path fill="#7DB69C" d="M3545.719,232.386c1.404-1.686,2.815-3.235,4.229-4.647c6.215-6.215,12.704-11.301,19.477-15.238
		c4.512-2.825,9.167-5.085,13.971-6.779c15.52-5.369,32.171-3.819,49.961,4.655c12.695,5.076,23.422,12.852,32.17,23.286
		l1.688,1.685c3.954,3.966,7.619,8.048,11.008,12.277c5.359,7.345,9.588,15.11,12.704,23.295
		c11.849,22.291,17.07,43.872,15.657,64.76c0,0.565-0.072,2.052-0.209,4.447c-0.146,2.397-0.355,4.312-0.639,5.715
		c-0.838,6.771-3.243,12.268-7.19,16.506c-0.847,1.138-1.84,2.049-2.962,2.751c-1.139,0.711-1.978,1.066-2.543,1.066l-1.267,0.418
		c-0.848,0.284-1.841,0.575-2.962,0.849c-1.704,0.566-4.101,1.13-7.199,1.695c-5.085,0.838-12.275,1.969-21.59,3.381l-64.77,8.886
		l-47.409,5.933l-5.086,0.85c-0.847,12.43-1.421,24.405-1.695,35.979c4.512,27.942,11.429,51.091,20.743,69.427
		c1.694,3.664,4.511,8.329,8.466,13.963l6.353,9.742c5.924,4.802,14.244,9.879,24.979,15.247c3.949,1.694,6.627,4.656,8.039,8.885
		c5.925,2.825,8.75,7.618,8.468,14.39c-0.284,3.956-1.979,7.328-5.077,10.154c-3.115,2.824-6.645,4.1-10.59,3.818h-2.962
		c-8.749-0.566-15.729-1.194-20.952-1.906c-5.223-0.701-12.003-2.824-20.313-6.352c-8.331-3.527-15.175-8.394-20.544-14.608
		c-13.259-14.946-21.58-40.063-24.969-75.343c-9.032-24.561-14.4-50.516-16.087-77.894c-3.108,0.282-5.368,0.565-6.771,0.839
		c-4.521,0.292-8.331-0.985-11.438-3.81c-5.65,0.848-10.855,1.695-15.657,2.542c-3.946,0.574-7.628-0.418-11.009-2.961
		c-3.391-2.534-5.359-5.778-5.934-9.732c-0.555-3.947,0.43-7.621,2.971-11.011c2.543-3.381,5.788-5.358,9.733-5.924
		c6.498-0.838,19.33-2.961,38.524-6.36c1.41-17.197,4.236-33.849,8.465-49.944c6.78-24.551,17.361-46.141,31.752-64.769
		C3540.068,238.874,3542.895,235.493,3545.719,232.386z M3582.965,348.384l9.743-2.124c12.13-2.524,22.437-5.222,30.905-8.046
		c12.703-4.795,22.438-9.725,29.207-14.802c0.85-1.421,1.696-3.955,2.544-7.638c0.847-3.654,1.413-8.185,1.694-13.533
		c0.84-15.52-1.84-29.072-8.047-40.646c-16.934-18.055-34.996-24.551-54.189-19.476c-9.031,2.278-17.353,11.72-24.98,28.36
		c-4.229,8.75-9.45,24.699-15.656,47.847c-2.533,8.467-4.803,19.048-6.771,31.733c12.978-1.394,24.689-1.949,35.133-1.676H3582.965z
		"/>
	<path fill="#7DB69C" d="M3923.76,440.667c-0.574,3.682-2.27,6.707-5.086,9.096c-2.825,2.396-6.07,3.608-9.742,3.608
		c-1.688,0-7.055,0.564-16.087,1.678c-13.259,1.422-22.29,2.269-27.085,2.552c-11.583,1.121-20.742,1.694-27.523,1.694
		c-4.793,0-8.748-0.427-11.846-1.274c-1.979-0.275-3.674-0.703-5.088-1.268l-9.732,4.221c-0.281,0-0.846,0.437-1.695,1.274
		c-2.543,1.704-4.229,2.698-5.084,2.972c-2.261,1.402-4.512,2.397-6.772,2.953c1.131,19.484,1.705,37.821,1.705,55.047
		c0,4.519-1.705,8.183-5.086,11.008l-0.847,11.429c-0.574,3.955-2.406,7.181-5.506,9.733c-3.107,2.533-6.771,3.663-11,3.391
		c-3.391-0.576-6.287-2.051-8.686-4.457c-2.396-2.398-3.881-5.287-4.438-8.667c-1.694-2.542-2.541-5.368-2.541-8.467
		c0-27.095-2.688-72.536-8.048-136.312c-1.695-20.322-3.107-47.555-4.229-81.713c-3.39-63.494-5.505-99.483-6.353-107.94
		c-2.25-22.584-5.504-43.317-9.741-62.228c-0.849-3.108-0.556-6.07,0.856-8.895v-0.421c-0.856-3.944-0.146-7.627,2.113-11.009
		c2.26-3.389,5.505-5.358,9.734-5.924c3.1-0.564,6.069-0.282,8.887,0.839c2.26-1.694,4.656-2.825,7.199-3.392
		c2.26-0.272,4.511-0.135,6.771,0.439c2.26-1.705,4.666-3.1,7.199-4.248c8.184-4.501,19.477-7.045,33.865-7.617h0.429
		c2.534-0.84,4.931-1.533,7.19-2.106c16.934-4.237,31.605-2.688,44.029,4.647c14.107,7.902,23.421,22.174,27.941,42.771
		c3.664,16.65,5.641,34.285,5.924,52.896c0.564,18.646-0.357,37.256-2.752,55.894c-2.398,18.619-5.441,36.334-9.105,53.123
		c-3.663,16.805-8.184,33.521-13.543,50.17c-3.955,12.97-9.46,28.215-16.514,45.714l4.238-0.848l4.657-0.838
		c16.368-4.813,32.171-8.33,47.409-10.59c3.955-0.565,7.627,0.428,11.008,2.951c3.393,2.553,5.359,5.799,5.933,9.752v2.115
		c4.229,2.532,6.479,6.207,6.773,10.999c0.272,3.382-0.502,6.508-2.334,9.323C3929.318,437.551,3926.857,439.538,3923.76,440.667z
		 M3798.019,148.14c-5.076,3.955-9.878,8.193-14.39,12.705c8.466,60.961,12.978,133.066,13.553,216.319l4.229-12.704
		c1.695-5.351,5.641-16.35,11.856-33.009l15.236-41.486c3.665-11.009,7.547-24.352,11.64-40.008
		c4.09-15.658,6.707-29.419,7.837-41.274c2.251-25.127-1.559-42.188-11.438-51.229
		C3828.641,150.409,3815.809,147.301,3798.019,148.14z"/>
	<path fill="#7DB69C" d="M4218.803,139.245c1.412,18.637,6.926,94.134,16.514,226.49c0.273,3.956,0.983,12.777,2.123,26.457
		c1.12,13.697,1.822,24.124,2.123,31.323c0.273,7.199,0.337,16.732,0.201,28.581c-0.137,11.855-1.131,22.719-2.962,32.598
		c-1.851,9.881-4.439,19.468-7.838,28.772l-0.848,1.713c-0.564,1.413-0.985,2.68-1.276,3.81
		c-10.144,28.499-29.619,50.088-58.408,64.771c-15.521,8.74-34.578,15.083-57.152,19.048c-22.008,3.381-43.744,3.946-65.189,1.686
		c-11.009-0.564-21.735-1.686-32.17-3.382c-2.826-0.573-5.231-1.832-7.2-3.819l-8.466-2.113c-3.955-1.121-6.982-3.453-9.104-6.98
		c-2.114-3.526-2.616-7.264-1.478-11.229c1.404-4.512,4.092-7.756,8.039-9.733c0.564-1.403,1.275-2.825,2.124-4.228
		c2.251-3.391,5.349-5.497,9.313-6.354c3.945-0.848,7.619-0.145,11,2.125c0.282,0,3.244,2.105,8.895,6.342
		c1.969,1.695,3.527,2.688,4.648,2.963c4.802,1.695,13.479,2.187,26.036,1.485c12.559-0.712,26.886-2.479,42.972-5.286
		c34.148-6.225,57.006-12.996,68.58-20.322c3.099-1.979,5.924-4.248,8.466-6.772c4.794-6.207,8.612-13.698,11.438-22.446
		c4.512-13.826,6.762-31.597,6.762-53.333c0.273-21.736-0.703-44.027-2.953-66.894l-2.123-33.01
		c-20.889,45.996-52.914,76.198-96.094,90.59c-8.193,2.824-16.377,4.738-24.552,5.715c-8.194,0.992-17.144,0.573-26.886-1.278
		c-9.732-1.822-18.418-5.422-26.037-10.789c-18.628-12.969-30.057-33.019-34.286-60.114c-2.269-13.259-2.542-34.001-0.847-62.218
		c2.814-48.831,12.977-91.3,30.477-127.436c25.116-51.919,60.541-78.313,106.264-79.16c24.26-0.556,45.714,5.797,64.342,19.058
		c2.252-1.697,4.931-2.689,8.037-2.962c2.816-4.239,6.635-6.627,11.43-7.201c4.236-0.282,7.9,0.911,11,3.601
		C4216.834,131.991,4218.529,135.308,4218.803,139.245z M4013.072,309.852c7.336-54.755,24.688-101.169,52.064-139.273
		c-9.596,9.879-18.199,22.584-25.817,38.104C4025.767,236.896,4017.018,270.645,4013.072,309.852z M4104.509,371.66
		c-2.534,0.847-5.076,1.548-7.618,2.123c-14.391,2.524-27.379-3.399-38.952-17.781c-3.38-3.955-5.788-9.597-7.19-16.942
		c-0.849-4.784-1.422-10.435-1.696-16.924c0-1.42,0.138-9.597,0.429-24.553c0.273-11.018,0.557-19.064,0.848-24.142
		c-4.813,17.509-8.046,36.41-9.742,56.733c-1.695,17.497-1.559,33.729,0.418,48.686c1.414,9.878,3.528,17.497,6.354,22.855
		c1.694,3.391,3.391,5.086,5.086,5.086c9.313,0.564,17.78-0.984,25.39-4.647c5.934-2.826,12.987-10.298,21.171-22.446
		L4104.509,371.66z M4162.508,203.176v-0.847c1.121-16.076-1.841-25.399-8.886-27.942c-7.347-2.534-13.553-2.962-18.63-1.258
		c-4.236,1.403-10.588,5.487-19.055,12.268c-8.184,6.78-14.811,13.98-19.896,21.581c-5.085,7.637-8.749,16.796-11.009,27.523
		c-2.261,10.734-3.674,20.194-4.229,28.37c-0.848,8.173-1.422,20.041-1.695,35.552c-0.283,14.391-0.42,21.873-0.42,22.438
		c0.273,5.077,0.693,9.314,1.268,12.704l0.848,3.81c4.229,5.086,7.893,7.473,11.009,7.2c3.664-0.839,8.038-4.374,13.124-10.59
		c8.456-10.444,16.932-26.395,25.389-47.829c4.238-11.009,11.438-35.142,21.6-72.398
		C4153.33,208.399,4156.857,204.863,4162.508,203.176z M4184.517,245.091c-1.422,6.206-2.261,9.733-2.533,10.58
		c-5.934,26.529-16.515,57.006-31.753,91.436c-9.04,19.76-17.926,36.128-26.674,49.104c-3.664,5.651-7.337,10.591-11.001,14.819
		c40.072-25.673,64.342-74.221,72.808-145.635L4184.517,245.091z"/>
	<path fill="#7DB69C" d="M4811.567,547.825c-2.953,2.242-6.297,3.217-9.989,2.971c-3.7-0.256-6.852-1.668-9.486-4.22
		c-1.213-1.185-5.441-4.519-12.696-10.023c-10.479-8.249-17.533-13.945-21.161-17.098c-9.067-7.282-16.03-13.28-20.869-17.999
		c-3.446-3.364-56.177-42.588-59.275-43.436c-1.969-0.275-3.682-0.703-5.076-1.268l-9.743,4.221c-0.272,0-0.838,0.437-1.686,1.274
		c-2.552,1.704-4.238,2.698-5.076,2.972c-2.269,1.402-4.528,2.397-6.78,2.953c1.129,19.484,2.04,10.262,2.04,27.468
		c0,4.521-1.693,8.192-5.084,11.01l-0.775,37.948c-0.573,3.938-2.396,7.199-5.495,9.725c-3.117,2.552-7.199,4.729-11.429,4.457
		c-3.39-0.576-6.287-2.051-8.686-4.457c-2.396-2.398-3.872-5.287-4.438-8.667c-1.694-2.542-2.533-5.368-2.533-8.467
		c0-27.095-2.688-72.536-8.037-136.312c-1.714-20.322-3.127-47.555-4.248-81.713c-3.39-63.494-5.504-99.483-6.352-107.94
		c-2.252-22.584-5.504-43.317-9.724-62.228c-0.857-3.108-0.575-6.07,0.838-8.895v-0.421c-0.838-3.944-0.138-7.627,2.114-11.009
		c2.26-3.389,5.505-5.358,9.733-5.924c3.099-0.564,6.07-0.282,8.885,0.839c2.252-1.694,4.676-2.825,7.2-3.392
		c2.252-0.272,4.511-0.135,6.78,0.439c2.252-1.705,4.657-3.1,7.201-4.248c8.174-4.501,79.368,4.649,91.345,12.649l0.328,0.237
		c2.562,0.812,4.903,1.658,7.071,2.534c16.187,6.525,17.052,4.475,27.852,14.044c12.349,10.436,18.784,26.203,19.312,47.273
		c0.447,17.059-0.976,34.748-4.229,53.094c-2.98,18.392-7.428,36.491-13.313,54.335c-5.889,17.827-12.25,34.641-19.039,50.435
		c-6.789,15.786-9.998-1.475-15.357,15.175c-3.954,12.97-9.459,28.215-16.503,45.714l4.236-0.848l79.507,72.116
		c15.056,7.991,28.836,16.504,41.32,25.546c3.219,2.341,5.16,5.613,5.815,9.787c0.648,4.191-0.201,7.893-2.561,11.118l-1.468,1.514
		c1.249,4.774,0.292,8.967-2.854,12.604c-2.159,2.624-4.884,4.31-8.165,5.048C4817.729,549.493,4814.574,549.193,4811.567,547.825z
		 M4693.163,167.424c-8.522-1.549-53.314-11.091-57.824-6.579c11.419,82.131,13.096,150.564,13.542,216.319l4.229-12.704
		c1.695-5.351,2.762,3.518,12.021-11.646l22.838-37.842c5.696-10.114,12.031-22.455,19.031-37.063
		c6.988-14.609,12.157-27.614,15.529-39.043c6.979-24.232,6.47-41.713-1.496-52.459
		C4714.599,177.977,4710.681,170.614,4693.163,167.424z"/>
	<path fill="#7DB69C" d="M4954.55,468.28c2.817,7.347,5.777,14.383,8.903,21.163c7.893,15.529,16.925,28.233,27.086,38.114
		c8.75,1.676,21.309,1.83,37.676,0.417c3.382-0.291,6.479,0.565,9.305,2.534c5.65-1.403,11.293-2.951,16.942-4.655
		c3.107-1.122,6.207-1.122,9.306,0c3.107-1.971,6.562-2.544,10.381-1.696c3.808,0.847,6.844,2.826,9.095,5.923
		c2.261,3.399,3.034,7.137,2.332,11.238c-0.71,4.073-2.752,7.254-6.133,9.514l-3.4,2.124c0.274,6.48-2.523,11.146-8.456,13.972
		c-19.768,9.86-39.225,11.848-58.419,5.924c-0.856,0-1.695-0.155-2.542-0.438c-0.282,0.564-0.702,1.139-1.276,1.713
		c-2.523,3.1-5.859,4.775-9.942,5.068c-4.093,0.282-7.693-0.993-10.79-3.811l-2.553-0.855c-1.686-0.565-4.302-1.551-7.828-2.954
		c-3.527-1.422-6.133-2.532-7.828-3.39c-1.696-0.837-3.956-2.051-6.771-3.6c-2.826-1.549-5.505-3.381-8.048-5.496
		c-2.533-2.123-5.23-4.592-8.038-7.409c-15.529-16.923-27.378-45.567-35.561-85.94l-3.391-19.048
		c-16.934-63.769-22.985-138.991-18.209-225.625l-14.382-1.704h-6.343c-2.826,0-5.369-0.555-7.637-1.694l-15.657-2.124h-0.43
		c-4.51-0.556-8.046-2.953-10.57-7.199c-2.825-1.113-5.076-3.1-6.781-5.924c-1.694-2.808-2.396-5.925-2.113-9.305v-3.382
		c0.564-4.237,2.47-7.637,5.714-10.161c3.244-2.543,6.852-3.527,10.791-2.962c17.224,2.259,34.156,3.81,50.809,4.647l1.266-13.124
		c0.556-6.197,0.984-11.281,1.257-15.238v-5.084c0-1.404,0.155-2.808,0.438-4.229c0.273-6.207,0.419-12.129,0.419-17.78
		c0-4.238,1.404-7.829,4.229-10.799c2.825-2.962,6.206-4.448,10.161-4.448c1.696,0,3.245,0.164,4.658,0.438
		c1.412-0.273,2.814-0.438,4.229-0.438c3.107,0,5.932,0.855,8.474,2.552c1.688-0.848,3.382-1.276,5.086-1.276
		c4.229-0.272,7.839,0.993,10.79,3.81c2.972,2.826,4.586,6.214,4.867,10.162c0.848,17.498,1.403,35.99,1.694,55.456
		c25.118-1.111,48.969-4.083,71.543-8.885c3.946-0.848,7.682-0.21,11.209,1.904c3.537,2.113,5.724,5.157,6.563,9.095
		c0.273,0.848,0.438,1.55,0.438,2.124c0.273,0,0.409,0.136,0.409,0.418h7.201c3.954,0,7.408,1.486,10.38,4.457
		c2.961,2.962,4.438,6.416,4.438,10.372c0,3.945-1.477,7.399-4.438,10.361c-2.972,2.964-6.426,4.438-10.38,4.438
		c-10.437,0-21.445,0.154-33.02,0.438h-0.428c-2.251,5.359-6.334,8.311-12.268,8.886c-15.529,1.13-32.171,1.413-49.951,0.848
		c-0.574,0-1.13,0.146-1.696,0.429c0,13.534-0.209,41.42-0.638,83.598c-0.427,42.196-0.491,74.859-0.209,97.999
		c0,3.682-0.154,11.856-0.429,24.552C4948.626,445.571,4951.442,457.564,4954.55,468.28z"/>
	<path fill="#7DB69C" d="M5177.24,232.386c1.403-1.686,2.816-3.235,4.228-4.647c6.217-6.215,2.936-16.605,9.097-21.473
		c4.074-3.415,8.356-6.306,12.887-8.648c14.637-7.474,31.333-8.247,50.125-2.342c13.27,3.282,24.971,9.478,35.087,18.593l1.915,1.43
		c4.465,3.372,8.656,6.898,12.603,10.637c6.333,6.525,11.602,13.632,15.812,21.287c14.856,20.434,23.012,41.085,24.517,61.974
		c0.092,0.556,0.199,2.023,0.41,4.411c0.182,2.406,0.244,4.338,0.155,5.76c0.116,6.816-1.496,12.613-4.83,17.353
		c-0.676,1.22-1.523,2.296-2.524,3.134c-1.031,0.848-1.823,1.331-2.398,1.404l-1.184,0.592c-0.793,0.401-1.732,0.821-2.826,1.249
		c-1.586,0.792-3.892,1.694-6.871,2.68c-4.921,1.54-11.903,3.673-20.925,6.361l-62.901,17.809l-60.251,17.378l-5.085,0.85
		c-0.848,12.43-1.422,24.405-1.695,35.979c4.51,27.942,7.883,53.368,20.742,69.427c27.15,33.911,51.583,16.86,58.182,18.848
		l11.018,3.736c7.62,0.108,17.291-1.03,29.045-3.445c4.147-1.103,8.094-0.447,11.822,2.005c6.396-1.422,11.582,0.601,15.547,6.107
		c2.223,3.28,2.979,6.979,2.277,11.116c-0.711,4.148-2.688,7.327-5.959,9.533l-2.334,1.841c-7.235,4.948-13.123,8.778-17.662,11.447
		c-4.529,2.68-11.183,5.195-19.904,7.563c-8.713,2.352-39.016,15.439-106.155-15.419c-18.172-8.331-21.59-40.063-24.988-75.343
		c-9.022-24.561-14.382-50.516-16.076-77.894c-3.099,0.282-5.359,0.565-6.772,0.839c-4.512,0.292,14.91,0.893,11.803-1.932
		c-5.65,0.838-10.854,1.676-15.657,2.523c-3.946,0.574-7.627-0.41-11-2.96c-3.4-2.535-5.367-5.78-5.934-9.734
		c-0.564-3.946,0.421-7.619,2.972-11.001c2.533-3.399,5.787-5.367,9.734-5.922c6.488-0.857-3.92-4.831,15.282-8.23
		c1.414-17.197,4.229-33.849,8.466-49.944c6.781-24.551,17.353-46.141,31.753-64.769
		C5171.59,238.874,5174.415,235.493,5177.24,232.386z M5222.863,338.941l9.35-3.435c11.665-4.202,21.509-8.295,29.474-12.269
		c11.922-6.506,20.87-12.758,26.885-18.729c0.639-1.512,1.122-4.155,1.459-7.892c0.328-3.764,0.254-8.312-0.201-13.661
		c-1.348-15.483-5.879-28.533-13.625-39.134c-19.274-15.52-38.067-19.439-56.366-11.756c-8.641,3.509-15.567,14.025-20.799,31.578
		c-2.971,9.251-7.126,31.533-13.332,54.681c-2.525,8.467-4.804,19.048-6.771,31.733c12.978-1.394,33.136-9.869,43.526-11.045
		L5222.863,338.941z"/>
	<path fill="#7DB69C" d="M5560.776,251.871c-2.262,1.676-4.648,4.221-7.2,7.601c-4.229,4.812-10.571,13.697-19.047,26.684
		c-18.911,29.072-33.857,52.904-44.857,71.543c-12.995,32.443-23.859,62.227-32.608,89.313c-1.686,5.924-5.65,9.46-11.849,10.59
		c1.112,24.844,2.534,46.716,4.229,65.619l0.418,2.112c1.989,5.933,0.712,11.155-3.809,15.658c-2.825,2.824-6.069,4.374-9.732,4.666
		c-3.956,0.273-7.556-0.931-10.79-3.599c-3.263-2.681-5.014-5.998-5.295-9.945v-2.971l-1.267-2.952
		c-1.988,3.938-5.232,6.488-9.743,7.602c-3.946,0.848-7.683,0.219-11.219-1.897c-3.536-2.113-5.723-5.141-6.563-9.104
		c-6.204-25.964-10.298-52.494-12.283-79.588c-1.95-27.086-3.1-58.547-3.382-94.399v-27.514c0-16.36-0.056-26.675-0.209-30.905
		c-0.146-4.229-0.346-12.978-0.629-26.246c-0.282-13.26-0.638-23.35-1.065-30.275c-0.421-6.9-1.113-15.511-2.115-25.81
		c-0.985-10.3-2.188-19.831-3.6-28.581c-0.556-3.954,0.427-7.619,2.961-11.008c2.553-3.381,5.787-5.359,9.743-5.933
		c5.075-0.558,13.68,24.935,17.344,28.89l-0.43-2.963c-0.847-3.964-0.138-7.699,2.124-11.228c2.25-3.526,5.35-5.632,9.314-6.352
		c3.937-0.693,7.674,0.082,11.21,2.342c3.536,2.25,5.577,5.35,6.15,9.306c10.153,51.637,12.55,100.094,15.676,192.942l30.476-63.922
		c9.031-18.056,17.216-33.583,24.543-46.553l15.666-35.151c7.629-16.942,13.279-28.214,16.942-33.866
		c11.565-17.497,24.972-26.246,40.209-26.246c18.92,0,34.714,12.567,47.418,37.685c2.543,5.085,4.931,10.571,7.199,16.505
		c2.252,5.923,4.585,12.485,6.981,19.686c2.398,7.189,3.736,10.936,4.02,11.219c8.184,23.14,14.819,52.64,19.895,88.474
		c5.076,35.836,7.838,70.129,8.258,102.874c0.427,32.736-0.785,62.792-3.6,90.171c-0.565,4.228-2.471,7.619-5.707,10.151
		c-3.262,2.542-6.852,3.519-10.8,2.972c-2.824,2.533-6.224,3.81-10.16,3.81c-3.955,0-7.401-1.478-10.372-4.447
		c-2.952-2.952-4.437-6.416-4.437-10.372c0-38.112-4.239-98.208-12.715-180.348c0.565,12.432,1.411,37.266,2.552,74.512
		c1.404,49.387,3.654,85.933,6.762,109.645c0.575,3.946-0.418,7.547-2.952,10.791c-2.542,3.244-5.86,5.148-9.961,5.725
		c-4.073,0.555-7.755-0.42-11-2.973c-3.243-2.532-5.157-5.924-5.715-10.151c-3.108-25.682-5.367-63.085-6.771-112.179
		c-1.422-51.921-3.1-88.631-5.086-110.065c-1.412-16.096-3.381-31.06-5.923-44.894c-1.988-9.304-3.957-16.924-5.925-22.848
		C5561.487,254.259,5561.06,252.982,5560.776,251.871z M5598.033,277.681c-0.274-0.839-0.712-2.388-1.268-4.648
		c1.969,9.023,3.382,17.061,4.221,24.135C5600.986,294.341,5600.011,287.843,5598.033,277.681z"/>
	<path fill="#7DB69C" d="M4525.655,404.468c-0.291-19.895-1.139-43.453-2.551-70.694c-1.414-27.222-4.375-52.283-8.886-75.141
		c-4.512-22.856,1.366,2.042-6.253-16.03c-11.29-26.804-24.706-45.713-40.227-56.715c-10.161-11.291-21.572-18.646-34.295-22.017
		c-20.596-5.65-44.165-1.842-70.693,11.419c-23.978,11.855-41.767,26.546-53.341,44.046c-3.665,5.074-3.802,10.425-0.401,16.075
		l-3.819,5.495c-2.542,3.127-3.463,6.718-2.744,10.8c0.693,4.101,2.662,7.338,5.925,9.743c3.227,2.397,6.899,3.244,11.001,2.542
		c4.072-0.71,7.262-2.761,9.523-6.142l2.113-2.543c5.642,0.282,10.016-1.969,13.125-6.771c7.045-10.152,16.221-19.193,27.514-27.095
		c11.291-7.902,23.002-13.261,35.15-16.087c25.673-2.815,45.14,11.283,58.418,42.333c7.326,17.507,0.602-3.864,3.709,26.611
		c-6.771-5.642-13.825-9.742-21.17-12.275c-12.695-4.803-25.975-4.374-39.791,1.267c-19.466,7.901-39.232,25.828-59.274,53.761
		c-18.063,25.409-31.187,55.32-39.37,89.751c-8.175,33.865-9.305,66.182-3.382,96.94c2.816,15.247,9.03,28.098,18.629,38.522
		c9.597,10.445,20.595,17.499,33.026,21.173c12.404,3.654,25.527,4.784,39.361,3.38c13.826-1.422,26.53-5.65,38.105-12.704
		c11.291-6.762,22.018-17.626,32.179-32.599c2.808,14.973,19.731,18.199,29.054,26.665c0.841,3.956,2.954,4.389,6.353,6.502
		c3.381,2.115,6.899-0.682,10.572-0.682h0.855c3.655,0,7.255,3.863,10.782,2.16c3.536-1.676,5.997-2.917,7.419-6.315
		c1.403-3.107,1.694-5.7,0.848-9.089c1.121-1.969,1.694-3.906,1.694-6.447c0-11.283-10.507-23.587-9.796-54.228
		C4525.729,449.479,4525.931,424.363,4525.655,404.468z M4387.677,509.447c-42.05-6.251,4.548-198.83,62.61-180.685
		C4478.903,337.722,4421.342,514.461,4387.677,509.447z"/>
	<path fill="#7DB69C" d="M3428.034,546.494c-0.847-3.954-2.96-7.054-6.353-9.305c-2.259-7.901-3.744-16.86-4.438-26.886
		c-0.711-10.016-1.066-18.772-1.066-26.247c0-7.472,0.283-17.634,0.848-30.483c0.565-12.832,0.117-22.648,0.117-29.419
		c0.572-42.598-1.143-109.646-1.143-201.084v-22.017v-90.69c0-6.205,0.441-13.815-0.125-22.865
		c-0.564-9.022-1.047-17.197-2.177-24.542c-0.838-4.229-2.711-7.556-5.954-9.943c-3.244-2.397-6.751-3.587-10.698-3.021
		c-1.421,0.279-2.603,1.008-3.725,1.008h-2.962c-4.237,0-7.555,3.154-9.952,6.398c-2.405,3.254-3.317,6.976-2.752,10.929
		c3.1,18.355,4.939,104.597,5.505,126.322c-6.489-7.328-14.117-12.532-22.857-15.64c-15.238-5.359-32.462-3.647-51.656,5.091
		c-14.672,6.79-28.99,16.738-42.96,29.861c-13.973,13.124-25.054,26.186-33.228,39.163c-18.902,30.768-31.68,69.576-38.314,116.42
		c-6.627,46.845-5.15,87.775,4.447,122.762c6.771,24.561,17.425,43.472,31.951,56.729c14.537,13.262,31.543,20.324,51.02,21.172
		c16.648,0.565,33.229-3.536,49.741-12.285c16.504-8.749,31.543-21.016,45.085-36.818c3.381,14.108,9.88,25.535,19.475,34.285
		l1.268,3.391c1.412,3.954,3.946,6.78,7.619,8.456c3.664,1.696,7.481,1.841,11.428,0.43c3.947-1.413,6.771-3.956,8.467-7.629
		l1.695-2.525C3428.309,554.113,3428.883,550.449,3428.034,546.494z M3378.503,318.326l-17.161,117.002l-18.127,26.063
		c0,0-28.334,60.059-58.691,68.599c-30.357,8.539-52.366-41.404-51.236-133.194c1.14-91.793,61.453-135.575,98.437-158.688
		c48.894-30.565,51.818,10.572,51.818,10.572L3378.503,318.326z"/>
</g>
</svg>
